<?xml version="1.0" encoding="UTF-8" standalone="no"?>
<!DOCTYPE svg PUBLIC "-//W3C//DTD SVG 1.1//EN"
 "http://www.w3.org/Graphics/SVG/1.1/DTD/svg11.dtd">
<!-- Generated by graphviz version 13.1.2 (20250808.2320)
 -->
<!-- Title: dependency&#45;cruiser output Pages: 1 -->
<svg width="1009pt" height="1450pt"
 viewBox="0.00 0.00 1009.00 1450.00" xmlns="http://www.w3.org/2000/svg" xmlns:xlink="http://www.w3.org/1999/xlink">
<g id="graph0" class="graph" transform="scale(1 1) rotate(0) translate(4 1446)">
<title>dependency&#45;cruiser output</title>
<polygon fill="white" stroke="none" points="-4,4 -4,-1446 1005.38,-1446 1005.38,4 -4,4"/>
<g id="clust1" class="cluster">
<title>cluster_config</title>
<path fill="#ffffff" stroke="black" stroke-width="2" d="M225.12,-81C225.12,-81 344.88,-81 344.88,-81 350.88,-81 356.88,-87 356.88,-93 356.88,-93 356.88,-121 356.88,-121 356.88,-127 350.88,-133 344.88,-133 344.88,-133 225.12,-133 225.12,-133 219.12,-133 213.12,-127 213.12,-121 213.12,-121 213.12,-93 213.12,-93 213.12,-87 219.12,-81 225.12,-81"/>
<text xml:space="preserve" text-anchor="middle" x="285" y="-120.45" font-family="Helvetica,sans-Serif" font-weight="bold" font-size="9.00">config</text>
</g>
<g id="clust2" class="cluster">
<title>cluster_contexts</title>
<path fill="#ffffff" stroke="black" stroke-width="2" d="M820.12,-748C820.12,-748 891.88,-748 891.88,-748 897.88,-748 903.88,-754 903.88,-760 903.88,-760 903.88,-788 903.88,-788 903.88,-794 897.88,-800 891.88,-800 891.88,-800 820.12,-800 820.12,-800 814.12,-800 808.12,-794 808.12,-788 808.12,-788 808.12,-760 808.12,-760 808.12,-754 814.12,-748 820.12,-748"/>
<text xml:space="preserve" text-anchor="middle" x="856" y="-787.45" font-family="Helvetica,sans-Serif" font-weight="bold" font-size="9.00">contexts</text>
</g>
<g id="clust3" class="cluster">
<title>cluster_data</title>
<path fill="#ffffff" stroke="black" stroke-width="2" d="M558.5,-813C558.5,-813 610.75,-813 610.75,-813 616.75,-813 622.75,-819 622.75,-825 622.75,-825 622.75,-883 622.75,-883 622.75,-889 616.75,-895 610.75,-895 610.75,-895 558.5,-895 558.5,-895 552.5,-895 546.5,-889 546.5,-883 546.5,-883 546.5,-825 546.5,-825 546.5,-819 552.5,-813 558.5,-813"/>
<text xml:space="preserve" text-anchor="middle" x="584.62" y="-882.45" font-family="Helvetica,sans-Serif" font-weight="bold" font-size="9.00">data</text>
</g>
<g id="clust4" class="cluster">
<title>cluster_hooks</title>
<path fill="#ffffff" stroke="black" stroke-width="2" d="M695,-668C695,-668 781.75,-668 781.75,-668 787.75,-668 793.75,-674 793.75,-680 793.75,-680 793.75,-738 793.75,-738 793.75,-744 787.75,-750 781.75,-750 781.75,-750 695,-750 695,-750 689,-750 683,-744 683,-738 683,-738 683,-680 683,-680 683,-674 689,-668 695,-668"/>
<text xml:space="preserve" text-anchor="middle" x="738.38" y="-737.45" font-family="Helvetica,sans-Serif" font-weight="bold" font-size="9.00">hooks</text>
</g>
<g id="clust5" class="cluster">
<title>cluster_lib</title>
<path fill="#ffffff" stroke="black" stroke-width="2" d="M680.62,-1146C680.62,-1146 879,-1146 879,-1146 885,-1146 891,-1152 891,-1158 891,-1158 891,-1422 891,-1422 891,-1428 885,-1434 879,-1434 879,-1434 680.62,-1434 680.62,-1434 674.62,-1434 668.62,-1428 668.62,-1422 668.62,-1422 668.62,-1158 668.62,-1158 668.62,-1152 674.62,-1146 680.62,-1146"/>
<text xml:space="preserve" text-anchor="middle" x="779.81" y="-1421.45" font-family="Helvetica,sans-Serif" font-weight="bold" font-size="9.00">lib</text>
</g>
<g id="clust6" class="cluster">
<title>cluster_lib/guards</title>
<path fill="#ffffff" stroke="black" stroke-width="2" d="M700.25,-1180C700.25,-1180 776.5,-1180 776.5,-1180 782.5,-1180 788.5,-1186 788.5,-1192 788.5,-1192 788.5,-1220 788.5,-1220 788.5,-1226 782.5,-1232 776.5,-1232 776.5,-1232 700.25,-1232 700.25,-1232 694.25,-1232 688.25,-1226 688.25,-1220 688.25,-1220 688.25,-1192 688.25,-1192 688.25,-1186 694.25,-1180 700.25,-1180"/>
<text xml:space="preserve" text-anchor="middle" x="738.38" y="-1219.45" font-family="Helvetica,sans-Serif" font-weight="bold" font-size="9.00">guards</text>
</g>
<g id="clust7" class="cluster">
<title>cluster_lib/middleware</title>
<path fill="#ffffff" stroke="black" stroke-width="2" d="M715.38,-1356C715.38,-1356 761.38,-1356 761.38,-1356 767.38,-1356 773.38,-1362 773.38,-1368 773.38,-1368 773.38,-1396 773.38,-1396 773.38,-1402 767.38,-1408 761.38,-1408 761.38,-1408 715.38,-1408 715.38,-1408 709.38,-1408 703.38,-1402 703.38,-1396 703.38,-1396 703.38,-1368 703.38,-1368 703.38,-1362 709.38,-1356 715.38,-1356"/>
<text xml:space="preserve" text-anchor="middle" x="738.38" y="-1395.45" font-family="Helvetica,sans-Serif" font-weight="bold" font-size="9.00">middleware</text>
</g>
<g id="clust8" class="cluster">
<title>cluster_lib/schemas</title>
<path fill="#ffffff" stroke="black" stroke-width="2" d="M688.62,-1240C688.62,-1240 788.12,-1240 788.12,-1240 794.12,-1240 800.12,-1246 800.12,-1252 800.12,-1252 800.12,-1310 800.12,-1310 800.12,-1316 794.12,-1322 788.12,-1322 788.12,-1322 688.62,-1322 688.62,-1322 682.62,-1322 676.62,-1316 676.62,-1310 676.62,-1310 676.62,-1252 676.62,-1252 676.62,-1246 682.62,-1240 688.62,-1240"/>
<text xml:space="preserve" text-anchor="middle" x="738.38" y="-1309.45" font-family="Helvetica,sans-Serif" font-weight="bold" font-size="9.00">schemas</text>
</g>
<g id="clust9" class="cluster">
<title>cluster_marketing</title>
<path fill="#ffffff" stroke="black" stroke-width="2" d="M79.12,-680C79.12,-680 488.62,-680 488.62,-680 494.62,-680 500.62,-686 500.62,-692 500.62,-692 500.62,-1058 500.62,-1058 500.62,-1064 494.62,-1070 488.62,-1070 488.62,-1070 79.12,-1070 79.12,-1070 73.12,-1070 67.12,-1064 67.12,-1058 67.12,-1058 67.12,-692 67.12,-692 67.12,-686 73.12,-680 79.12,-680"/>
<text xml:space="preserve" text-anchor="middle" x="283.88" y="-1057.45" font-family="Helvetica,sans-Serif" font-weight="bold" font-size="9.00">marketing</text>
</g>
<g id="clust10" class="cluster">
<title>cluster_marketing/assets</title>
<path fill="#ffffff" stroke="black" stroke-width="2" d="M383.38,-846C383.38,-846 480.62,-846 480.62,-846 486.62,-846 492.62,-852 492.62,-858 492.62,-858 492.62,-916 492.62,-916 492.62,-922 486.62,-928 480.62,-928 480.62,-928 383.38,-928 383.38,-928 377.38,-928 371.38,-922 371.38,-916 371.38,-916 371.38,-858 371.38,-858 371.38,-852 377.38,-846 383.38,-846"/>
<text xml:space="preserve" text-anchor="middle" x="432" y="-915.45" font-family="Helvetica,sans-Serif" font-weight="bold" font-size="9.00">assets</text>
</g>
<g id="clust11" class="cluster">
<title>cluster_marketing/components</title>
<path fill="#ffffff" stroke="black" stroke-width="2" d="M94.5,-808C94.5,-808 351.38,-808 351.38,-808 357.38,-808 363.38,-814 363.38,-820 363.38,-820 363.38,-1032 363.38,-1032 363.38,-1038 357.38,-1044 351.38,-1044 351.38,-1044 94.5,-1044 94.5,-1044 88.5,-1044 82.5,-1038 82.5,-1032 82.5,-1032 82.5,-820 82.5,-820 82.5,-814 88.5,-808 94.5,-808"/>
<text xml:space="preserve" text-anchor="middle" x="222.94" y="-1031.45" font-family="Helvetica,sans-Serif" font-weight="bold" font-size="9.00">components</text>
</g>
<g id="clust12" class="cluster">
<title>cluster_marketing/components/layout</title>
<path fill="#ffffff" stroke="black" stroke-width="2" d="M102.5,-846C102.5,-846 160.75,-846 160.75,-846 166.75,-846 172.75,-852 172.75,-858 172.75,-858 172.75,-886 172.75,-886 172.75,-892 166.75,-898 160.75,-898 160.75,-898 102.5,-898 102.5,-898 96.5,-898 90.5,-892 90.5,-886 90.5,-886 90.5,-858 90.5,-858 90.5,-852 96.5,-846 102.5,-846"/>
<text xml:space="preserve" text-anchor="middle" x="131.62" y="-885.45" font-family="Helvetica,sans-Serif" font-weight="bold" font-size="9.00">layout</text>
</g>
<g id="clust13" class="cluster">
<title>cluster_marketing/components/sections</title>
<path fill="#ffffff" stroke="black" stroke-width="2" d="M226.62,-816C226.62,-816 343.38,-816 343.38,-816 349.38,-816 355.38,-822 355.38,-828 355.38,-828 355.38,-1006 355.38,-1006 355.38,-1012 349.38,-1018 343.38,-1018 343.38,-1018 226.62,-1018 226.62,-1018 220.62,-1018 214.62,-1012 214.62,-1006 214.62,-1006 214.62,-828 214.62,-828 214.62,-822 220.62,-816 226.62,-816"/>
<text xml:space="preserve" text-anchor="middle" x="285" y="-1005.45" font-family="Helvetica,sans-Serif" font-weight="bold" font-size="9.00">sections</text>
</g>
<g id="clust14" class="cluster">
<title>cluster_marketing/pages</title>
<path fill="#ffffff" stroke="black" stroke-width="2" d="M87.12,-688C87.12,-688 176.12,-688 176.12,-688 182.12,-688 188.12,-694 188.12,-700 188.12,-700 188.12,-788 188.12,-788 188.12,-794 182.12,-800 176.12,-800 176.12,-800 87.12,-800 87.12,-800 81.12,-800 75.12,-794 75.12,-788 75.12,-788 75.12,-700 75.12,-700 75.12,-694 81.12,-688 87.12,-688"/>
<text xml:space="preserve" text-anchor="middle" x="131.62" y="-787.45" font-family="Helvetica,sans-Serif" font-weight="bold" font-size="9.00">pages</text>
</g>
<g id="clust15" class="cluster">
<title>cluster_payments</title>
<path fill="#ffffff" stroke="black" stroke-width="2" d="M221.25,-220C221.25,-220 475.5,-220 475.5,-220 481.5,-220 487.5,-226 487.5,-232 487.5,-232 487.5,-504 487.5,-504 487.5,-510 481.5,-516 475.5,-516 475.5,-516 221.25,-516 221.25,-516 215.25,-516 209.25,-510 209.25,-504 209.25,-504 209.25,-232 209.25,-232 209.25,-226 215.25,-220 221.25,-220"/>
<text xml:space="preserve" text-anchor="middle" x="348.38" y="-503.45" font-family="Helvetica,sans-Serif" font-weight="bold" font-size="9.00">payments</text>
</g>
<g id="clust16" class="cluster">
<title>cluster_payments/components</title>
<path fill="#ffffff" stroke="black" stroke-width="2" d="M229.25,-408C229.25,-408 340.75,-408 340.75,-408 346.75,-408 352.75,-414 352.75,-420 352.75,-420 352.75,-478 352.75,-478 352.75,-484 346.75,-490 340.75,-490 340.75,-490 229.25,-490 229.25,-490 223.25,-490 217.25,-484 217.25,-478 217.25,-478 217.25,-420 217.25,-420 217.25,-414 223.25,-408 229.25,-408"/>
<text xml:space="preserve" text-anchor="middle" x="285" y="-477.45" font-family="Helvetica,sans-Serif" font-weight="bold" font-size="9.00">components</text>
</g>
<g id="clust17" class="cluster">
<title>cluster_payments/services</title>
<path fill="#ffffff" stroke="black" stroke-width="2" d="M257.75,-288C257.75,-288 467.5,-288 467.5,-288 473.5,-288 479.5,-294 479.5,-300 479.5,-300 479.5,-388 479.5,-388 479.5,-394 473.5,-400 467.5,-400 467.5,-400 257.75,-400 257.75,-400 251.75,-400 245.75,-394 245.75,-388 245.75,-388 245.75,-300 245.75,-300 245.75,-294 251.75,-288 257.75,-288"/>
<text xml:space="preserve" text-anchor="middle" x="362.62" y="-387.45" font-family="Helvetica,sans-Serif" font-weight="bold" font-size="9.00">services</text>
</g>
<g id="clust18" class="cluster">
<title>cluster_payments/webhooks</title>
<path fill="#ffffff" stroke="black" stroke-width="2" d="M245.38,-228C245.38,-228 324.62,-228 324.62,-228 330.62,-228 336.62,-234 336.62,-240 336.62,-240 336.62,-268 336.62,-268 336.62,-274 330.62,-280 324.62,-280 324.62,-280 245.38,-280 245.38,-280 239.38,-280 233.38,-274 233.38,-268 233.38,-268 233.38,-240 233.38,-240 233.38,-234 239.38,-228 245.38,-228"/>
<text xml:space="preserve" text-anchor="middle" x="285" y="-267.45" font-family="Helvetica,sans-Serif" font-weight="bold" font-size="9.00">webhooks</text>
</g>
<g id="clust19" class="cluster">
<title>cluster_services</title>
<path fill="#ffffff" stroke="black" stroke-width="2" d="M74,-68C74,-68 189.25,-68 189.25,-68 195.25,-68 201.25,-74 201.25,-80 201.25,-80 201.25,-108 201.25,-108 201.25,-114 195.25,-120 189.25,-120 189.25,-120 74,-120 74,-120 68,-120 62,-114 62,-108 62,-108 62,-80 62,-80 62,-74 68,-68 74,-68"/>
<text xml:space="preserve" text-anchor="middle" x="131.62" y="-107.45" font-family="Helvetica,sans-Serif" font-weight="bold" font-size="9.00">services</text>
</g>
<g id="clust20" class="cluster">
<title>cluster_styles</title>
<path fill="#ffffff" stroke="black" stroke-width="2" d="M104.75,-8C104.75,-8 158.5,-8 158.5,-8 164.5,-8 170.5,-14 170.5,-20 170.5,-20 170.5,-48 170.5,-48 170.5,-54 164.5,-60 158.5,-60 158.5,-60 104.75,-60 104.75,-60 98.75,-60 92.75,-54 92.75,-48 92.75,-48 92.75,-20 92.75,-20 92.75,-14 98.75,-8 104.75,-8"/>
<text xml:space="preserve" text-anchor="middle" x="131.62" y="-47.45" font-family="Helvetica,sans-Serif" font-weight="bold" font-size="9.00">styles</text>
</g>
<g id="clust21" class="cluster">
<title>cluster_types</title>
<path fill="#ffffff" stroke="black" stroke-width="2" d="M520.62,-925C520.62,-925 648.62,-925 648.62,-925 654.62,-925 660.62,-931 660.62,-937 660.62,-937 660.62,-1055 660.62,-1055 660.62,-1061 654.62,-1067 648.62,-1067 648.62,-1067 520.62,-1067 520.62,-1067 514.62,-1067 508.62,-1061 508.62,-1055 508.62,-1055 508.62,-937 508.62,-937 508.62,-931 514.62,-925 520.62,-925"/>
<text xml:space="preserve" text-anchor="middle" x="584.62" y="-1054.45" font-family="Helvetica,sans-Serif" font-weight="bold" font-size="9.00">types</text>
</g>
<g id="clust22" class="cluster">
<title>cluster_utils</title>
<path fill="#ffffff" stroke="black" stroke-width="2" d="M559.25,-704C559.25,-704 610,-704 610,-704 616,-704 622,-710 622,-716 622,-716 622,-744 622,-744 622,-750 616,-756 610,-756 610,-756 559.25,-756 559.25,-756 553.25,-756 547.25,-750 547.25,-744 547.25,-744 547.25,-716 547.25,-716 547.25,-710 553.25,-704 559.25,-704"/>
<text xml:space="preserve" text-anchor="middle" x="584.62" y="-743.45" font-family="Helvetica,sans-Serif" font-weight="bold" font-size="9.00">utils</text>
</g>
<!-- components/ -->
<g id="node1" class="node">
<title>components/</title>
<g id="a_node1"><a xlink:href="components/" xlink:title="components">
<polygon fill="#ffffcc" stroke="black" points="465.12,-671.88 400.85,-671.88 398.88,-669.9 398.88,-654.12 463.15,-654.12 465.12,-656.1 465.12,-671.88"/>
<polyline fill="none" stroke="black" points="463.15,-669.9 398.88,-669.9"/>
<polyline fill="none" stroke="black" points="463.15,-669.9 463.15,-654.12"/>
<polyline fill="none" stroke="black" points="463.15,-669.9 465.12,-671.88"/>
<text xml:space="preserve" text-anchor="start" x="406.88" y="-659.33" font-family="Helvetica,sans-Serif" font-size="9.00">components</text>
</a>
</g>
</g>
<!-- types/module&#45;configuration.types.ts -->
<g id="node2" class="node">
<title>types/module&#45;configuration.types.ts</title>
<g id="a_node2"><a xlink:href="types/module-configuration.types.ts" xlink:title="module&#45;configuration.types.ts">
<path fill="#ddfeff" stroke="black" d="M646.71,-1040.88C646.71,-1040.88 522.54,-1040.88 522.54,-1040.88 519.58,-1040.88 516.62,-1037.92 516.62,-1034.96 516.62,-1034.96 516.62,-1029.04 516.62,-1029.04 516.62,-1026.08 519.58,-1023.12 522.54,-1023.12 522.54,-1023.12 646.71,-1023.12 646.71,-1023.12 649.67,-1023.12 652.62,-1026.08 652.62,-1029.04 652.62,-1029.04 652.62,-1034.96 652.62,-1034.96 652.62,-1037.92 649.67,-1040.88 646.71,-1040.88"/>
<text xml:space="preserve" text-anchor="start" x="524.62" y="-1028.33" font-family="Helvetica,sans-Serif" font-size="9.00">module&#45;configuration.types.ts</text>
</a>
</g>
</g>
<!-- components/&#45;&gt;types/module&#45;configuration.types.ts -->
<g id="edge1" class="edge">
<title>components/&#45;&gt;types/module&#45;configuration.types.ts</title>
<path fill="none" stroke="#000000" stroke-width="2" stroke-opacity="0.200000" d="M437.58,-672.06C450.4,-697.93 486.58,-774.66 500.62,-843 504.52,-861.96 496.01,-1002.32 508.62,-1017 508.91,-1017.33 509.19,-1017.65 509.48,-1017.96"/>
<polygon fill="#000000" fill-opacity="0.200000" stroke="#000000" stroke-width="2" stroke-opacity="0.200000" points="508.02,-1019.48 513.94,-1021.8 510.76,-1016.3 508.02,-1019.48"/>
</g>
<!-- contexts/AuthContext.tsx -->
<g id="node3" class="node">
<title>contexts/AuthContext.tsx</title>
<g id="a_node3"><a xlink:href="contexts/AuthContext.tsx" xlink:title="AuthContext.tsx">
<path fill="#bbfeff" stroke="black" d="M889.96,-773.88C889.96,-773.88 822.04,-773.88 822.04,-773.88 819.08,-773.88 816.12,-770.92 816.12,-767.96 816.12,-767.96 816.12,-762.04 816.12,-762.04 816.12,-759.08 819.08,-756.12 822.04,-756.12 822.04,-756.12 889.96,-756.12 889.96,-756.12 892.92,-756.12 895.88,-759.08 895.88,-762.04 895.88,-762.04 895.88,-767.96 895.88,-767.96 895.88,-770.92 892.92,-773.88 889.96,-773.88"/>
<text xml:space="preserve" text-anchor="start" x="824.12" y="-761.33" font-family="Helvetica,sans-Serif" font-size="9.00">AuthContext.tsx</text>
</a>
</g>
</g>
<!-- components/&#45;&gt;contexts/AuthContext.tsx -->
<g id="edge2" class="edge">
<title>components/&#45;&gt;contexts/AuthContext.tsx</title>
<path fill="none" stroke="#000000" stroke-width="2" stroke-opacity="0.200000" d="M436.95,-672.37C446.08,-692.64 470.8,-740.24 508.62,-759 559.58,-784.28 724.35,-775.47 806.91,-769.16"/>
<polygon fill="#000000" fill-opacity="0.200000" stroke="#000000" stroke-width="2" stroke-opacity="0.200000" points="807.01,-771.26 812.82,-768.69 806.68,-767.07 807.01,-771.26"/>
</g>
<!-- hooks/useProfile.ts -->
<g id="node4" class="node">
<title>hooks/useProfile.ts</title>
<g id="a_node4"><a xlink:href="hooks/useProfile.ts" xlink:title="useProfile.ts">
<path fill="#ddfeff" stroke="black" d="M765.58,-693.88C765.58,-693.88 711.17,-693.88 711.17,-693.88 708.21,-693.88 705.25,-690.92 705.25,-687.96 705.25,-687.96 705.25,-682.04 705.25,-682.04 705.25,-679.08 708.21,-676.12 711.17,-676.12 711.17,-676.12 765.58,-676.12 765.58,-676.12 768.54,-676.12 771.5,-679.08 771.5,-682.04 771.5,-682.04 771.5,-687.96 771.5,-687.96 771.5,-690.92 768.54,-693.88 765.58,-693.88"/>
<text xml:space="preserve" text-anchor="start" x="713.25" y="-681.33" font-family="Helvetica,sans-Serif" font-size="9.00">useProfile.ts</text>
</a>
</g>
</g>
<!-- components/&#45;&gt;hooks/useProfile.ts -->
<g id="edge3" class="edge">
<title>components/&#45;&gt;hooks/useProfile.ts</title>
<path fill="none" stroke="#000000" stroke-width="2" stroke-opacity="0.200000" d="M465.42,-665.2C509.58,-668.21 591.09,-673.84 660.62,-679 672.09,-679.85 684.51,-680.81 695.96,-681.7"/>
<polygon fill="#000000" fill-opacity="0.200000" stroke="#000000" stroke-width="2" stroke-opacity="0.200000" points="695.73,-683.79 701.87,-682.17 696.05,-679.6 695.73,-683.79"/>
</g>
<!-- types/courses.ts -->
<g id="node5" class="node">
<title>types/courses.ts</title>
<g id="a_node5"><a xlink:href="types/courses.ts" xlink:title="courses.ts">
<path fill="#ddfeff" stroke="black" d="M607.33,-980.88C607.33,-980.88 561.92,-980.88 561.92,-980.88 558.96,-980.88 556,-977.92 556,-974.96 556,-974.96 556,-969.04 556,-969.04 556,-966.08 558.96,-963.12 561.92,-963.12 561.92,-963.12 607.33,-963.12 607.33,-963.12 610.29,-963.12 613.25,-966.08 613.25,-969.04 613.25,-969.04 613.25,-974.96 613.25,-974.96 613.25,-977.92 610.29,-980.88 607.33,-980.88"/>
<text xml:space="preserve" text-anchor="start" x="564" y="-968.33" font-family="Helvetica,sans-Serif" font-size="9.00">courses.ts</text>
</a>
</g>
</g>
<!-- components/&#45;&gt;types/courses.ts -->
<g id="edge4" class="edge">
<title>components/&#45;&gt;types/courses.ts</title>
<path fill="none" stroke="#000000" stroke-width="2" stroke-opacity="0.200000" d="M437.5,-672.08C450.09,-698 485.76,-774.83 500.62,-843 503.33,-855.41 500.24,-947.47 508.62,-957 518.05,-967.71 532.78,-972.07 546.7,-973.53"/>
<polygon fill="#000000" fill-opacity="0.200000" stroke="#000000" stroke-width="2" stroke-opacity="0.200000" points="546.52,-975.62 552.64,-973.91 546.79,-971.43 546.52,-975.62"/>
</g>
<!-- data/courses.ts -->
<g id="node6" class="node">
<title>data/courses.ts</title>
<g id="a_node6"><a xlink:href="data/courses.ts" xlink:title="courses.ts">
<path fill="#ddfeff" stroke="black" d="M607.33,-838.88C607.33,-838.88 561.92,-838.88 561.92,-838.88 558.96,-838.88 556,-835.92 556,-832.96 556,-832.96 556,-827.04 556,-827.04 556,-824.08 558.96,-821.12 561.92,-821.12 561.92,-821.12 607.33,-821.12 607.33,-821.12 610.29,-821.12 613.25,-824.08 613.25,-827.04 613.25,-827.04 613.25,-832.96 613.25,-832.96 613.25,-835.92 610.29,-838.88 607.33,-838.88"/>
<text xml:space="preserve" text-anchor="start" x="564" y="-826.33" font-family="Helvetica,sans-Serif" font-size="9.00">courses.ts</text>
</a>
</g>
</g>
<!-- components/&#45;&gt;data/courses.ts -->
<g id="edge5" class="edge">
<title>components/&#45;&gt;data/courses.ts</title>
<path fill="none" stroke="#000000" stroke-width="2" stroke-opacity="0.200000" d="M435.07,-672.06C441.38,-697.52 462.77,-770.33 508.62,-808 519.55,-816.97 534,-822.29 547.3,-825.43"/>
<polygon fill="#000000" fill-opacity="0.200000" stroke="#000000" stroke-width="2" stroke-opacity="0.200000" points="546.56,-827.42 552.87,-826.59 547.42,-823.31 546.56,-827.42"/>
</g>
<!-- data/modules.ts -->
<g id="node7" class="node">
<title>data/modules.ts</title>
<g id="a_node7"><a xlink:href="data/modules.ts" xlink:title="modules.ts">
<path fill="#ddfeff" stroke="black" d="M608.83,-868.88C608.83,-868.88 560.42,-868.88 560.42,-868.88 557.46,-868.88 554.5,-865.92 554.5,-862.96 554.5,-862.96 554.5,-857.04 554.5,-857.04 554.5,-854.08 557.46,-851.12 560.42,-851.12 560.42,-851.12 608.83,-851.12 608.83,-851.12 611.79,-851.12 614.75,-854.08 614.75,-857.04 614.75,-857.04 614.75,-862.96 614.75,-862.96 614.75,-865.92 611.79,-868.88 608.83,-868.88"/>
<text xml:space="preserve" text-anchor="start" x="562.5" y="-856.33" font-family="Helvetica,sans-Serif" font-size="9.00">modules.ts</text>
</a>
</g>
</g>
<!-- components/&#45;&gt;data/modules.ts -->
<g id="edge6" class="edge">
<title>components/&#45;&gt;data/modules.ts</title>
<path fill="none" stroke="#000000" stroke-width="2" stroke-opacity="0.200000" d="M433.61,-672.14C436.41,-703.16 450.43,-803.25 508.62,-851 518.88,-859.42 532.56,-863.55 545.43,-865.1"/>
<polygon fill="#000000" fill-opacity="0.200000" stroke="#000000" stroke-width="2" stroke-opacity="0.200000" points="544.99,-867.17 551.13,-865.55 545.32,-862.99 544.99,-867.17"/>
</g>
<!-- supabaseClient.ts -->
<g id="node8" class="node">
<title>supabaseClient.ts</title>
<g id="a_node8"><a xlink:href="supabaseClient.ts" xlink:title="supabaseClient.ts">
<path fill="#ddfeff" stroke="black" d="M995.46,-773.88C995.46,-773.88 917.79,-773.88 917.79,-773.88 914.83,-773.88 911.88,-770.92 911.88,-767.96 911.88,-767.96 911.88,-762.04 911.88,-762.04 911.88,-759.08 914.83,-756.12 917.79,-756.12 917.79,-756.12 995.46,-756.12 995.46,-756.12 998.42,-756.12 1001.38,-759.08 1001.38,-762.04 1001.38,-762.04 1001.38,-767.96 1001.38,-767.96 1001.38,-770.92 998.42,-773.88 995.46,-773.88"/>
<text xml:space="preserve" text-anchor="start" x="919.88" y="-761.33" font-family="Helvetica,sans-Serif" font-size="9.00">supabaseClient.ts</text>
</a>
</g>
</g>
<!-- components/&#45;&gt;supabaseClient.ts -->
<g id="edge7" class="edge">
<title>components/&#45;&gt;supabaseClient.ts</title>
<path fill="none" stroke="#000000" stroke-width="2" stroke-opacity="0.200000" d="M435.94,-672.14C443.68,-694.56 466.96,-752.26 508.62,-777 546.47,-799.47 862.05,-816.71 903.88,-803 917.55,-798.52 930.59,-788.89 940.16,-780.45"/>
<polygon fill="#000000" fill-opacity="0.200000" stroke="#000000" stroke-width="2" stroke-opacity="0.200000" points="941.57,-782.01 944.54,-776.39 938.71,-778.93 941.57,-782.01"/>
</g>
<!-- src/ -->
<g id="node9" class="node">
<title>src/</title>
<g id="a_node9"><a xlink:href="src/" xlink:title="src">
<polygon fill="#ffffcc" stroke="black" points="611.62,-643.88 559.6,-643.88 557.62,-641.9 557.62,-626.12 609.65,-626.12 611.62,-628.1 611.62,-643.88"/>
<polyline fill="none" stroke="black" points="609.65,-641.9 557.62,-641.9"/>
<polyline fill="none" stroke="black" points="609.65,-641.9 609.65,-626.12"/>
<polyline fill="none" stroke="black" points="609.65,-641.9 611.62,-643.88"/>
<text xml:space="preserve" text-anchor="start" x="578.62" y="-631.33" font-family="Helvetica,sans-Serif" font-size="9.00">src</text>
</a>
</g>
</g>
<!-- components/&#45;&gt;src/ -->
<g id="edge8" class="edge">
<title>components/&#45;&gt;src/</title>
<path fill="none" stroke="#000000" stroke-width="2" stroke-opacity="0.200000" d="M463.48,-653.63C488.09,-648.05 522.73,-641.56 548.5,-637.66"/>
<polygon fill="#000000" fill-opacity="0.200000" stroke="#000000" stroke-width="2" stroke-opacity="0.200000" points="548.58,-639.77 554.22,-636.82 547.98,-635.61 548.58,-639.77"/>
</g>
<!-- lib/assetPaths.ts -->
<g id="node10" class="node">
<title>lib/assetPaths.ts</title>
<g id="a_node10"><a xlink:href="lib/assetPaths.ts" xlink:title="assetPaths.ts">
<path fill="#ddfeff" stroke="black" d="M767.46,-1171.88C767.46,-1171.88 709.29,-1171.88 709.29,-1171.88 706.33,-1171.88 703.38,-1168.92 703.38,-1165.96 703.38,-1165.96 703.38,-1160.04 703.38,-1160.04 703.38,-1157.08 706.33,-1154.12 709.29,-1154.12 709.29,-1154.12 767.46,-1154.12 767.46,-1154.12 770.42,-1154.12 773.38,-1157.08 773.38,-1160.04 773.38,-1160.04 773.38,-1165.96 773.38,-1165.96 773.38,-1168.92 770.42,-1171.88 767.46,-1171.88"/>
<text xml:space="preserve" text-anchor="start" x="711.38" y="-1159.33" font-family="Helvetica,sans-Serif" font-size="9.00">assetPaths.ts</text>
</a>
</g>
</g>
<!-- components/&#45;&gt;lib/assetPaths.ts -->
<g id="edge9" class="edge">
<title>components/&#45;&gt;lib/assetPaths.ts</title>
<path fill="none" stroke="#000000" stroke-width="2" stroke-opacity="0.200000" d="M437.24,-672.14C449.17,-698.22 483.23,-775.43 500.62,-843 503.7,-854.96 499.94,-889.21 508.62,-898 556.69,-946.65 615.15,-870.92 660.62,-922 675.19,-938.36 657.72,-1100 668.62,-1119 676.53,-1132.77 690.68,-1142.91 704.09,-1149.97"/>
<polygon fill="#000000" fill-opacity="0.200000" stroke="#000000" stroke-width="2" stroke-opacity="0.200000" points="702.82,-1151.68 709.14,-1152.44 704.67,-1147.91 702.82,-1151.68"/>
</g>
<!-- types/case.types.ts -->
<g id="node11" class="node">
<title>types/case.types.ts</title>
<g id="a_node11"><a xlink:href="types/case.types.ts" xlink:title="case.types.ts">
<path fill="#ddfeff" stroke="black" d="M612.96,-950.88C612.96,-950.88 556.29,-950.88 556.29,-950.88 553.33,-950.88 550.38,-947.92 550.38,-944.96 550.38,-944.96 550.38,-939.04 550.38,-939.04 550.38,-936.08 553.33,-933.12 556.29,-933.12 556.29,-933.12 612.96,-933.12 612.96,-933.12 615.92,-933.12 618.88,-936.08 618.88,-939.04 618.88,-939.04 618.88,-944.96 618.88,-944.96 618.88,-947.92 615.92,-950.88 612.96,-950.88"/>
<text xml:space="preserve" text-anchor="start" x="558.38" y="-938.33" font-family="Helvetica,sans-Serif" font-size="9.00">case.types.ts</text>
</a>
</g>
</g>
<!-- components/&#45;&gt;types/case.types.ts -->
<g id="edge10" class="edge">
<title>components/&#45;&gt;types/case.types.ts</title>
<path fill="none" stroke="#000000" stroke-width="2" stroke-opacity="0.200000" d="M437.38,-672.11C449.67,-698.09 484.62,-775.09 500.62,-843 504.57,-859.74 497.61,-906.78 508.62,-920 516.73,-929.73 528.9,-935.29 541.09,-938.43"/>
<polygon fill="#000000" fill-opacity="0.200000" stroke="#000000" stroke-width="2" stroke-opacity="0.200000" points="540.64,-940.48 546.94,-939.68 541.51,-936.37 540.64,-940.48"/>
</g>
<!-- types/foundation.types.ts -->
<g id="node12" class="node">
<title>types/foundation.types.ts</title>
<g id="a_node12"><a xlink:href="types/foundation.types.ts" xlink:title="foundation.types.ts">
<path fill="#ddfeff" stroke="black" d="M624.96,-1010.88C624.96,-1010.88 544.29,-1010.88 544.29,-1010.88 541.33,-1010.88 538.38,-1007.92 538.38,-1004.96 538.38,-1004.96 538.38,-999.04 538.38,-999.04 538.38,-996.08 541.33,-993.12 544.29,-993.12 544.29,-993.12 624.96,-993.12 624.96,-993.12 627.92,-993.12 630.88,-996.08 630.88,-999.04 630.88,-999.04 630.88,-1004.96 630.88,-1004.96 630.88,-1007.92 627.92,-1010.88 624.96,-1010.88"/>
<text xml:space="preserve" text-anchor="start" x="546.38" y="-998.33" font-family="Helvetica,sans-Serif" font-size="9.00">foundation.types.ts</text>
</a>
</g>
</g>
<!-- components/&#45;&gt;types/foundation.types.ts -->
<g id="edge11" class="edge">
<title>components/&#45;&gt;types/foundation.types.ts</title>
<path fill="none" stroke="#000000" stroke-width="2" stroke-opacity="0.200000" d="M437.55,-672.07C450.28,-697.96 486.26,-774.73 500.62,-843 503.93,-858.68 498.13,-974.89 508.62,-987 514.18,-993.4 521.62,-997.55 529.67,-1000.16"/>
<polygon fill="#000000" fill-opacity="0.200000" stroke="#000000" stroke-width="2" stroke-opacity="0.200000" points="528.96,-1002.14 535.3,-1001.6 530.01,-998.07 528.96,-1002.14"/>
</g>
<!-- marketing/assets/navaa&#45;learn&#45;loop.png -->
<g id="node13" class="node">
<title>marketing/assets/navaa&#45;learn&#45;loop.png</title>
<g id="a_node13"><a xlink:href="marketing/assets/navaa-learn-loop.png" xlink:title="navaa&#45;learn&#45;loop.png">
<path fill="#ffffcc" stroke="black" d="M478.33,-871.88C478.33,-871.88 385.67,-871.88 385.67,-871.88 382.71,-871.88 379.75,-868.92 379.75,-865.96 379.75,-865.96 379.75,-860.04 379.75,-860.04 379.75,-857.08 382.71,-854.12 385.67,-854.12 385.67,-854.12 478.33,-854.12 478.33,-854.12 481.29,-854.12 484.25,-857.08 484.25,-860.04 484.25,-860.04 484.25,-865.96 484.25,-865.96 484.25,-868.92 481.29,-871.88 478.33,-871.88"/>
<text xml:space="preserve" text-anchor="start" x="387.75" y="-859.33" font-family="Helvetica,sans-Serif" font-size="9.00">navaa&#45;learn&#45;loop.png</text>
</a>
</g>
</g>
<!-- components/&#45;&gt;marketing/assets/navaa&#45;learn&#45;loop.png -->
<g id="edge12" class="edge">
<title>components/&#45;&gt;marketing/assets/navaa&#45;learn&#45;loop.png</title>
<path fill="none" stroke="#000000" stroke-width="2" stroke-opacity="0.200000" d="M432,-671.98C432,-729.59 432,-787.2 432,-844.8"/>
<polygon fill="#000000" fill-opacity="0.200000" stroke="#000000" stroke-width="2" stroke-opacity="0.200000" points="429.9,-844.65 432,-850.65 434.1,-844.65 429.9,-844.65"/>
</g>
<!-- utils/greeting.ts -->
<g id="node14" class="node">
<title>utils/greeting.ts</title>
<g id="a_node14"><a xlink:href="utils/greeting.ts" xlink:title="greeting.ts">
<path fill="#ddfeff" stroke="black" d="M608.08,-729.88C608.08,-729.88 561.17,-729.88 561.17,-729.88 558.21,-729.88 555.25,-726.92 555.25,-723.96 555.25,-723.96 555.25,-718.04 555.25,-718.04 555.25,-715.08 558.21,-712.12 561.17,-712.12 561.17,-712.12 608.08,-712.12 608.08,-712.12 611.04,-712.12 614,-715.08 614,-718.04 614,-718.04 614,-723.96 614,-723.96 614,-726.92 611.04,-729.88 608.08,-729.88"/>
<text xml:space="preserve" text-anchor="start" x="563.25" y="-717.33" font-family="Helvetica,sans-Serif" font-size="9.00">greeting.ts</text>
</a>
</g>
</g>
<!-- components/&#45;&gt;utils/greeting.ts -->
<g id="edge13" class="edge">
<title>components/&#45;&gt;utils/greeting.ts</title>
<path fill="none" stroke="#000000" stroke-width="2" stroke-opacity="0.200000" d="M450.38,-672.25C465.49,-680.05 488.11,-691.17 508.62,-699 520.66,-703.6 534.09,-707.81 546.22,-711.29"/>
<polygon fill="#000000" fill-opacity="0.200000" stroke="#000000" stroke-width="2" stroke-opacity="0.200000" points="545.52,-713.28 551.86,-712.88 546.65,-709.23 545.52,-713.28"/>
</g>
<!-- hooks/useUnifiedGuard.ts -->
<g id="node15" class="node">
<title>hooks/useUnifiedGuard.ts</title>
<g id="a_node15"><a xlink:href="hooks/useUnifiedGuard.ts" xlink:title="useUnifiedGuard.ts">
<path fill="#ddfeff" stroke="black" d="M779.83,-723.88C779.83,-723.88 696.92,-723.88 696.92,-723.88 693.96,-723.88 691,-720.92 691,-717.96 691,-717.96 691,-712.04 691,-712.04 691,-709.08 693.96,-706.12 696.92,-706.12 696.92,-706.12 779.83,-706.12 779.83,-706.12 782.79,-706.12 785.75,-709.08 785.75,-712.04 785.75,-712.04 785.75,-717.96 785.75,-717.96 785.75,-720.92 782.79,-723.88 779.83,-723.88"/>
<text xml:space="preserve" text-anchor="start" x="699" y="-711.33" font-family="Helvetica,sans-Serif" font-size="9.00">useUnifiedGuard.ts</text>
</a>
</g>
</g>
<!-- components/&#45;&gt;hooks/useUnifiedGuard.ts -->
<g id="edge14" class="edge">
<title>components/&#45;&gt;hooks/useUnifiedGuard.ts</title>
<path fill="none" stroke="#000000" stroke-width="2" stroke-opacity="0.200000" d="M465.32,-669.75C478.7,-672.45 494.38,-675.51 508.62,-678 575.93,-689.76 593.23,-689.76 660.62,-701 667.63,-702.17 675,-703.45 682.27,-704.74"/>
<polygon fill="#000000" fill-opacity="0.200000" stroke="#000000" stroke-width="2" stroke-opacity="0.200000" points="681.48,-706.73 687.76,-705.73 682.22,-702.6 681.48,-706.73"/>
</g>
<!-- contexts/AuthContext.tsx&#45;&gt;supabaseClient.ts -->
<g id="edge15" class="edge">
<title>contexts/AuthContext.tsx&#45;&gt;supabaseClient.ts</title>
<path fill="none" stroke="#000000" stroke-width="2" stroke-opacity="0.200000" d="M896.26,-765C898.47,-765 900.71,-765 902.96,-765"/>
<polygon fill="#000000" fill-opacity="0.200000" stroke="#000000" stroke-width="2" stroke-opacity="0.200000" points="902.6,-767.1 908.6,-765 902.6,-762.9 902.6,-767.1"/>
</g>
<!-- hooks/useProfile.ts&#45;&gt;contexts/AuthContext.tsx -->
<g id="edge18" class="edge">
<title>hooks/useProfile.ts&#45;&gt;contexts/AuthContext.tsx</title>
<path fill="none" stroke="#000000" stroke-width="2" stroke-opacity="0.200000" d="M771.77,-689.09C781.4,-691.31 791.64,-694.73 800.12,-700 805.47,-703.32 828.01,-731.01 842.49,-749.17"/>
<polygon fill="#000000" fill-opacity="0.200000" stroke="#000000" stroke-width="2" stroke-opacity="0.200000" points="840.51,-750.05 845.88,-753.44 843.79,-747.44 840.51,-750.05"/>
</g>
<!-- hooks/useProfile.ts&#45;&gt;supabaseClient.ts -->
<g id="edge19" class="edge">
<title>hooks/useProfile.ts&#45;&gt;supabaseClient.ts</title>
<path fill="none" stroke="#000000" stroke-width="2" stroke-opacity="0.200000" d="M771.8,-692.03C781.03,-694.29 791.05,-697 800.12,-700 846.09,-715.18 897.59,-737.89 928.27,-752.05"/>
<polygon fill="#000000" fill-opacity="0.200000" stroke="#000000" stroke-width="2" stroke-opacity="0.200000" points="927.28,-753.91 933.61,-754.53 929.05,-750.1 927.28,-753.91"/>
</g>
<!-- data/courses.ts&#45;&gt;lib/assetPaths.ts -->
<g id="edge16" class="edge">
<title>data/courses.ts&#45;&gt;lib/assetPaths.ts</title>
<path fill="none" stroke="#000000" stroke-width="2" stroke-opacity="0.200000" d="M613.41,-827.72C629.73,-828.04 649.32,-831.61 660.62,-845 680.28,-868.27 653.61,-1092.5 668.62,-1119 676.39,-1132.71 690.38,-1142.81 703.72,-1149.85"/>
<polygon fill="#000000" fill-opacity="0.200000" stroke="#000000" stroke-width="2" stroke-opacity="0.200000" points="702.42,-1151.55 708.73,-1152.31 704.27,-1147.78 702.42,-1151.55"/>
</g>
<!-- data/modules.ts&#45;&gt;components/ -->
<g id="edge17" class="edge">
<title>data/modules.ts&#45;&gt;components/</title>
<path fill="none" stroke="#000000" stroke-width="2" stroke-opacity="0.200000" d="M554.15,-855.12C539.06,-853.23 521.25,-849.36 508.62,-839 458.12,-797.56 440.88,-716.69 435.38,-680.75"/>
<polygon fill="#000000" fill-opacity="0.200000" stroke="#000000" stroke-width="2" stroke-opacity="0.200000" points="437.53,-680.89 434.6,-675.25 433.37,-681.49 437.53,-680.89"/>
</g>
<!-- src/&#45;&gt;components/ -->
<g id="edge75" class="edge">
<title>src/&#45;&gt;components/</title>
<path fill="none" stroke="#000000" stroke-width="2" stroke-opacity="0.200000" d="M557.38,-643.39C534.38,-648.77 500.58,-655.23 474.02,-659.43"/>
<polygon fill="#000000" fill-opacity="0.200000" stroke="#000000" stroke-width="2" stroke-opacity="0.200000" points="473.92,-657.32 468.31,-660.31 474.55,-661.47 473.92,-657.32"/>
</g>
<!-- src/&#45;&gt;contexts/AuthContext.tsx -->
<g id="edge76" class="edge">
<title>src/&#45;&gt;contexts/AuthContext.tsx</title>
<path fill="none" stroke="#000000" stroke-width="2" stroke-opacity="0.200000" d="M612.05,-631.59C655.41,-627.44 742.56,-625.28 800.12,-665 828.63,-684.67 843.8,-724.14 850.55,-747.17"/>
<polygon fill="#000000" fill-opacity="0.200000" stroke="#000000" stroke-width="2" stroke-opacity="0.200000" points="848.47,-747.51 852.08,-752.74 852.52,-746.4 848.47,-747.51"/>
</g>
<!-- src/&#45;&gt;hooks/useProfile.ts -->
<g id="edge77" class="edge">
<title>src/&#45;&gt;hooks/useProfile.ts</title>
<path fill="none" stroke="#000000" stroke-width="2" stroke-opacity="0.200000" d="M611.94,-640.24C626.46,-643.4 644.71,-647.81 660.62,-653 677.15,-658.39 695.1,-665.78 709.49,-672.11"/>
<polygon fill="#000000" fill-opacity="0.200000" stroke="#000000" stroke-width="2" stroke-opacity="0.200000" points="708.41,-673.93 714.74,-674.45 710.12,-670.09 708.41,-673.93"/>
</g>
<!-- src/&#45;&gt;lib/assetPaths.ts -->
<g id="edge78" class="edge">
<title>src/&#45;&gt;lib/assetPaths.ts</title>
<path fill="none" stroke="#000000" stroke-width="2" stroke-opacity="0.200000" d="M602.67,-644.29C620.76,-655.2 648.37,-675.14 660.62,-701 671.24,-723.41 664.72,-899.52 668.62,-924 682.14,-1008.87 716.2,-1106.25 730.69,-1145.38"/>
<polygon fill="#000000" fill-opacity="0.200000" stroke="#000000" stroke-width="2" stroke-opacity="0.200000" points="728.64,-1145.91 732.71,-1150.79 732.58,-1144.44 728.64,-1145.91"/>
</g>
<!-- lib/logger.ts -->
<g id="node18" class="node">
<title>lib/logger.ts</title>
<g id="a_node18"><a xlink:href="lib/logger.ts" xlink:title="logger.ts">
<path fill="#ddfeff" stroke="black" d="M877.08,-1171.88C877.08,-1171.88 834.92,-1171.88 834.92,-1171.88 831.96,-1171.88 829,-1168.92 829,-1165.96 829,-1165.96 829,-1160.04 829,-1160.04 829,-1157.08 831.96,-1154.12 834.92,-1154.12 834.92,-1154.12 877.08,-1154.12 877.08,-1154.12 880.04,-1154.12 883,-1157.08 883,-1160.04 883,-1160.04 883,-1165.96 883,-1165.96 883,-1168.92 880.04,-1171.88 877.08,-1171.88"/>
<text xml:space="preserve" text-anchor="start" x="838.38" y="-1159.33" font-family="Helvetica,sans-Serif" font-size="9.00">logger.ts</text>
</a>
</g>
</g>
<!-- src/&#45;&gt;lib/logger.ts -->
<g id="edge79" class="edge">
<title>src/&#45;&gt;lib/logger.ts</title>
<path fill="none" stroke="#000000" stroke-width="2" stroke-opacity="0.200000" d="M601.79,-644.37C619.37,-655.49 646.8,-675.74 660.62,-701 671.85,-721.51 661.95,-730.59 668.62,-753 716.32,-913.04 814.15,-1091.41 845.27,-1146.14"/>
<polygon fill="#000000" fill-opacity="0.200000" stroke="#000000" stroke-width="2" stroke-opacity="0.200000" points="843.37,-1147.04 848.17,-1151.21 847.02,-1144.96 843.37,-1147.04"/>
</g>
<!-- marketing/components/layout/MainApp.tsx -->
<g id="node24" class="node">
<title>marketing/components/layout/MainApp.tsx</title>
<g id="a_node24"><a xlink:href="marketing/components/layout/MainApp.tsx" xlink:title="MainApp.tsx">
<path fill="#bbfeff" stroke="black" d="M158.83,-871.88C158.83,-871.88 104.42,-871.88 104.42,-871.88 101.46,-871.88 98.5,-868.92 98.5,-865.96 98.5,-865.96 98.5,-860.04 98.5,-860.04 98.5,-857.08 101.46,-854.12 104.42,-854.12 104.42,-854.12 158.83,-854.12 158.83,-854.12 161.79,-854.12 164.75,-857.08 164.75,-860.04 164.75,-860.04 164.75,-865.96 164.75,-865.96 164.75,-868.92 161.79,-871.88 158.83,-871.88"/>
<text xml:space="preserve" text-anchor="start" x="106.5" y="-859.33" font-family="Helvetica,sans-Serif" font-size="9.00">MainApp.tsx</text>
</a>
</g>
</g>
<!-- src/&#45;&gt;marketing/components/layout/MainApp.tsx -->
<g id="edge80" class="edge">
<title>src/&#45;&gt;marketing/components/layout/MainApp.tsx</title>
<path fill="none" stroke="#000000" stroke-width="2" stroke-opacity="0.200000" d="M557.45,-633.27C507.42,-630.5 400.59,-627.29 371.38,-648 363.9,-653.3 370.29,-660.99 363.38,-667 309.91,-713.53 254.77,-653.67 209.25,-708 195.64,-724.24 210.81,-784.09 201.25,-803 191.01,-823.25 170.71,-839.64 154.83,-850.14"/>
<polygon fill="#000000" fill-opacity="0.200000" stroke="#000000" stroke-width="2" stroke-opacity="0.200000" points="148.92,-851.43 155.11,-849.96 151.19,-854.97 148.92,-851.43"/>
</g>
<!-- hooks/useUnifiedGuard.ts&#45;&gt;contexts/AuthContext.tsx -->
<g id="edge20" class="edge">
<title>hooks/useUnifiedGuard.ts&#45;&gt;contexts/AuthContext.tsx</title>
<path fill="none" stroke="#000000" stroke-width="2" stroke-opacity="0.200000" d="M760.85,-724.29C779.02,-732.15 805.25,-743.49 825.41,-752.2"/>
<polygon fill="#000000" fill-opacity="0.200000" stroke="#000000" stroke-width="2" stroke-opacity="0.200000" points="824.52,-754.11 830.86,-754.56 826.19,-750.25 824.52,-754.11"/>
</g>
<!-- config/case&#45;generation&#45;prompts.ts -->
<g id="node16" class="node">
<title>config/case&#45;generation&#45;prompts.ts</title>
<g id="a_node16"><a xlink:href="config/case-generation-prompts.ts" xlink:title="case&#45;generation&#45;prompts.ts">
<path fill="#ddfeff" stroke="black" d="M342.96,-106.88C342.96,-106.88 227.04,-106.88 227.04,-106.88 224.08,-106.88 221.12,-103.92 221.12,-100.96 221.12,-100.96 221.12,-95.04 221.12,-95.04 221.12,-92.08 224.08,-89.12 227.04,-89.12 227.04,-89.12 342.96,-89.12 342.96,-89.12 345.92,-89.12 348.88,-92.08 348.88,-95.04 348.88,-95.04 348.88,-100.96 348.88,-100.96 348.88,-103.92 345.92,-106.88 342.96,-106.88"/>
<text xml:space="preserve" text-anchor="start" x="229.12" y="-94.33" font-family="Helvetica,sans-Serif" font-size="9.00">case&#45;generation&#45;prompts.ts</text>
</a>
</g>
</g>
<!-- lib/guards/UnifiedGuard.tsx -->
<g id="node17" class="node">
<title>lib/guards/UnifiedGuard.tsx</title>
<g id="a_node17"><a xlink:href="lib/guards/UnifiedGuard.tsx" xlink:title="UnifiedGuard.tsx">
<path fill="#bbfeff" stroke="black" d="M774.58,-1205.88C774.58,-1205.88 702.17,-1205.88 702.17,-1205.88 699.21,-1205.88 696.25,-1202.92 696.25,-1199.96 696.25,-1199.96 696.25,-1194.04 696.25,-1194.04 696.25,-1191.08 699.21,-1188.12 702.17,-1188.12 702.17,-1188.12 774.58,-1188.12 774.58,-1188.12 777.54,-1188.12 780.5,-1191.08 780.5,-1194.04 780.5,-1194.04 780.5,-1199.96 780.5,-1199.96 780.5,-1202.92 777.54,-1205.88 774.58,-1205.88"/>
<text xml:space="preserve" text-anchor="start" x="704.25" y="-1193.33" font-family="Helvetica,sans-Serif" font-size="9.00">UnifiedGuard.tsx</text>
</a>
</g>
</g>
<!-- lib/guards/UnifiedGuard.tsx&#45;&gt;contexts/AuthContext.tsx -->
<g id="edge21" class="edge">
<title>lib/guards/UnifiedGuard.tsx&#45;&gt;contexts/AuthContext.tsx</title>
<path fill="none" stroke="#000000" stroke-width="2" stroke-opacity="0.200000" d="M780.88,-1195.17C788.14,-1193.04 795.01,-1189.55 800.12,-1184 807.07,-1176.47 843.7,-862.88 852.9,-783.24"/>
<polygon fill="#000000" fill-opacity="0.200000" stroke="#000000" stroke-width="2" stroke-opacity="0.200000" points="854.98,-783.56 853.58,-777.36 850.81,-783.08 854.98,-783.56"/>
</g>
<!-- lib/middleware/auth.ts -->
<g id="node19" class="node">
<title>lib/middleware/auth.ts</title>
<g id="a_node19"><a xlink:href="lib/middleware/auth.ts" xlink:title="auth.ts">
<path fill="#ddfeff" stroke="black" d="M759.46,-1381.88C759.46,-1381.88 717.29,-1381.88 717.29,-1381.88 714.33,-1381.88 711.38,-1378.92 711.38,-1375.96 711.38,-1375.96 711.38,-1370.04 711.38,-1370.04 711.38,-1367.08 714.33,-1364.12 717.29,-1364.12 717.29,-1364.12 759.46,-1364.12 759.46,-1364.12 762.42,-1364.12 765.38,-1367.08 765.38,-1370.04 765.38,-1370.04 765.38,-1375.96 765.38,-1375.96 765.38,-1378.92 762.42,-1381.88 759.46,-1381.88"/>
<text xml:space="preserve" text-anchor="start" x="724.88" y="-1369.33" font-family="Helvetica,sans-Serif" font-size="9.00">auth.ts</text>
</a>
</g>
</g>
<!-- lib/middleware/auth.ts&#45;&gt;supabaseClient.ts -->
<g id="edge22" class="edge">
<title>lib/middleware/auth.ts&#45;&gt;supabaseClient.ts</title>
<path fill="none" stroke="#000000" stroke-width="2" stroke-opacity="0.200000" d="M765.74,-1370.28C776.78,-1368.41 789.49,-1365.27 800.12,-1360 854.56,-1333.03 875.72,-1324.84 903.88,-1271 949.59,-1183.58 954.93,-863.28 955.55,-783.23"/>
<polygon fill="#000000" fill-opacity="0.200000" stroke="#000000" stroke-width="2" stroke-opacity="0.200000" points="957.64,-783.35 955.58,-777.34 953.44,-783.33 957.64,-783.35"/>
</g>
<!-- lib/rateLimiter.ts -->
<g id="node20" class="node">
<title>lib/rateLimiter.ts</title>
<g id="a_node20"><a xlink:href="lib/rateLimiter.ts" xlink:title="rateLimiter.ts">
<path fill="#ddfeff" stroke="black" d="M766.71,-1347.88C766.71,-1347.88 710.04,-1347.88 710.04,-1347.88 707.08,-1347.88 704.12,-1344.92 704.12,-1341.96 704.12,-1341.96 704.12,-1336.04 704.12,-1336.04 704.12,-1333.08 707.08,-1330.12 710.04,-1330.12 710.04,-1330.12 766.71,-1330.12 766.71,-1330.12 769.67,-1330.12 772.62,-1333.08 772.62,-1336.04 772.62,-1336.04 772.62,-1341.96 772.62,-1341.96 772.62,-1344.92 769.67,-1347.88 766.71,-1347.88"/>
<text xml:space="preserve" text-anchor="start" x="712.12" y="-1335.33" font-family="Helvetica,sans-Serif" font-size="9.00">rateLimiter.ts</text>
</a>
</g>
</g>
<!-- lib/rateLimiter.ts&#45;&gt;lib/logger.ts -->
<g id="edge23" class="edge">
<title>lib/rateLimiter.ts&#45;&gt;lib/logger.ts</title>
<path fill="none" stroke="#000000" stroke-width="2" stroke-opacity="0.200000" d="M772.95,-1338.3C782.97,-1336.42 793.14,-1332.54 800.12,-1325 816.31,-1307.52 801.59,-1294.91 808.12,-1272 817.72,-1238.38 835.2,-1201.42 845.89,-1180.33"/>
<polygon fill="#000000" fill-opacity="0.200000" stroke="#000000" stroke-width="2" stroke-opacity="0.200000" points="847.75,-1181.31 848.63,-1175.01 844.01,-1179.39 847.75,-1181.31"/>
</g>
<!-- lib/schemas/admin.schemas.ts -->
<g id="node21" class="node">
<title>lib/schemas/admin.schemas.ts</title>
<g id="a_node21"><a xlink:href="lib/schemas/admin.schemas.ts" xlink:title="admin.schemas.ts">
<path fill="#ddfeff" stroke="black" d="M777.21,-1295.88C777.21,-1295.88 699.54,-1295.88 699.54,-1295.88 696.58,-1295.88 693.62,-1292.92 693.62,-1289.96 693.62,-1289.96 693.62,-1284.04 693.62,-1284.04 693.62,-1281.08 696.58,-1278.12 699.54,-1278.12 699.54,-1278.12 777.21,-1278.12 777.21,-1278.12 780.17,-1278.12 783.12,-1281.08 783.12,-1284.04 783.12,-1284.04 783.12,-1289.96 783.12,-1289.96 783.12,-1292.92 780.17,-1295.88 777.21,-1295.88"/>
<text xml:space="preserve" text-anchor="start" x="701.62" y="-1283.33" font-family="Helvetica,sans-Serif" font-size="9.00">admin.schemas.ts</text>
</a>
</g>
</g>
<!-- lib/schemas/foundation.schemas.ts -->
<g id="node22" class="node">
<title>lib/schemas/foundation.schemas.ts</title>
<g id="a_node22"><a xlink:href="lib/schemas/foundation.schemas.ts" xlink:title="foundation.schemas.ts">
<path fill="#ddfeff" stroke="black" d="M786.21,-1265.88C786.21,-1265.88 690.54,-1265.88 690.54,-1265.88 687.58,-1265.88 684.62,-1262.92 684.62,-1259.96 684.62,-1259.96 684.62,-1254.04 684.62,-1254.04 684.62,-1251.08 687.58,-1248.12 690.54,-1248.12 690.54,-1248.12 786.21,-1248.12 786.21,-1248.12 789.17,-1248.12 792.12,-1251.08 792.12,-1254.04 792.12,-1254.04 792.12,-1259.96 792.12,-1259.96 792.12,-1262.92 789.17,-1265.88 786.21,-1265.88"/>
<text xml:space="preserve" text-anchor="start" x="692.62" y="-1253.33" font-family="Helvetica,sans-Serif" font-size="9.00">foundation.schemas.ts</text>
</a>
</g>
</g>
<!-- marketing/assets/navaa&#45;lernansatz.png -->
<g id="node23" class="node">
<title>marketing/assets/navaa&#45;lernansatz.png</title>
<g id="a_node23"><a xlink:href="marketing/assets/navaa-lernansatz.png" xlink:title="navaa&#45;lernansatz.png">
<path fill="#ffffcc" stroke="black" d="M478.71,-901.88C478.71,-901.88 385.29,-901.88 385.29,-901.88 382.33,-901.88 379.38,-898.92 379.38,-895.96 379.38,-895.96 379.38,-890.04 379.38,-890.04 379.38,-887.08 382.33,-884.12 385.29,-884.12 385.29,-884.12 478.71,-884.12 478.71,-884.12 481.67,-884.12 484.62,-887.08 484.62,-890.04 484.62,-890.04 484.62,-895.96 484.62,-895.96 484.62,-898.92 481.67,-901.88 478.71,-901.88"/>
<text xml:space="preserve" text-anchor="start" x="387.38" y="-889.33" font-family="Helvetica,sans-Serif" font-size="9.00">navaa&#45;lernansatz.png</text>
</a>
</g>
</g>
<!-- marketing/components/layout/MainApp.tsx&#45;&gt;components/ -->
<g id="edge30" class="edge">
<title>marketing/components/layout/MainApp.tsx&#45;&gt;components/</title>
<path fill="none" stroke="#000000" stroke-width="2" stroke-opacity="0.200000" d="M146.22,-853.89C193.69,-822.07 352.32,-715.74 409.89,-677.15"/>
<polygon fill="#000000" fill-opacity="0.200000" stroke="#000000" stroke-width="2" stroke-opacity="0.200000" points="411,-678.94 414.81,-673.85 408.66,-675.45 411,-678.94"/>
</g>
<!-- marketing/components/layout/MainApp.tsx&#45;&gt;src/ -->
<g id="edge31" class="edge">
<title>marketing/components/layout/MainApp.tsx&#45;&gt;src/</title>
<path fill="none" stroke="#000000" stroke-width="2" stroke-opacity="0.200000" d="M149.31,-853.79C165.75,-843.69 189.99,-825.85 201.25,-803 213.65,-777.83 191.45,-698.69 209.25,-677 254.21,-622.2 304.91,-676.08 363.38,-636 368.36,-632.58 365.99,-627.74 371.38,-625 422.56,-598.93 443.28,-621.56 500.62,-625 516.34,-625.94 533.64,-627.88 548.36,-629.81"/>
<polygon fill="#000000" fill-opacity="0.200000" stroke="#000000" stroke-width="2" stroke-opacity="0.200000" points="547.93,-631.87 554.16,-630.59 548.49,-627.7 547.93,-631.87"/>
</g>
<!-- marketing/components/sections/BenefitOverview.tsx -->
<g id="node25" class="node">
<title>marketing/components/sections/BenefitOverview.tsx</title>
<g id="a_node25"><a xlink:href="marketing/components/sections/BenefitOverview.tsx" xlink:title="BenefitOverview.tsx">
<path fill="#bbfeff" stroke="black" d="M326.83,-901.88C326.83,-901.88 243.17,-901.88 243.17,-901.88 240.21,-901.88 237.25,-898.92 237.25,-895.96 237.25,-895.96 237.25,-890.04 237.25,-890.04 237.25,-887.08 240.21,-884.12 243.17,-884.12 243.17,-884.12 326.83,-884.12 326.83,-884.12 329.79,-884.12 332.75,-887.08 332.75,-890.04 332.75,-890.04 332.75,-895.96 332.75,-895.96 332.75,-898.92 329.79,-901.88 326.83,-901.88"/>
<text xml:space="preserve" text-anchor="start" x="245.25" y="-889.33" font-family="Helvetica,sans-Serif" font-size="9.00">BenefitOverview.tsx</text>
</a>
</g>
</g>
<!-- marketing/components/layout/MainApp.tsx&#45;&gt;marketing/components/sections/BenefitOverview.tsx -->
<g id="edge24" class="edge">
<title>marketing/components/layout/MainApp.tsx&#45;&gt;marketing/components/sections/BenefitOverview.tsx</title>
<path fill="none" stroke="#000000" stroke-width="2" stroke-opacity="0.200000" d="M165.1,-869.44C183.5,-873.08 207.03,-877.74 228.29,-881.96"/>
<polygon fill="#000000" fill-opacity="0.200000" stroke="#000000" stroke-width="2" stroke-opacity="0.200000" points="227.66,-883.98 233.96,-883.08 228.48,-879.86 227.66,-883.98"/>
</g>
<!-- marketing/components/sections/CredentialsSection.tsx -->
<g id="node26" class="node">
<title>marketing/components/sections/CredentialsSection.tsx</title>
<g id="a_node26"><a xlink:href="marketing/components/sections/CredentialsSection.tsx" xlink:title="CredentialsSection.tsx">
<path fill="#bbfeff" stroke="black" d="M332.83,-961.88C332.83,-961.88 237.17,-961.88 237.17,-961.88 234.21,-961.88 231.25,-958.92 231.25,-955.96 231.25,-955.96 231.25,-950.04 231.25,-950.04 231.25,-947.08 234.21,-944.12 237.17,-944.12 237.17,-944.12 332.83,-944.12 332.83,-944.12 335.79,-944.12 338.75,-947.08 338.75,-950.04 338.75,-950.04 338.75,-955.96 338.75,-955.96 338.75,-958.92 335.79,-961.88 332.83,-961.88"/>
<text xml:space="preserve" text-anchor="start" x="239.25" y="-949.33" font-family="Helvetica,sans-Serif" font-size="9.00">CredentialsSection.tsx</text>
</a>
</g>
</g>
<!-- marketing/components/layout/MainApp.tsx&#45;&gt;marketing/components/sections/CredentialsSection.tsx -->
<g id="edge25" class="edge">
<title>marketing/components/layout/MainApp.tsx&#45;&gt;marketing/components/sections/CredentialsSection.tsx</title>
<path fill="none" stroke="#000000" stroke-width="2" stroke-opacity="0.200000" d="M139.23,-872.34C151.2,-888.51 178.15,-921.56 209.25,-938 213.42,-940.2 217.87,-942.09 222.46,-943.69"/>
<polygon fill="#000000" fill-opacity="0.200000" stroke="#000000" stroke-width="2" stroke-opacity="0.200000" points="221.56,-945.61 227.92,-945.39 222.81,-941.6 221.56,-945.61"/>
</g>
<!-- marketing/components/sections/FAQSection.tsx -->
<g id="node27" class="node">
<title>marketing/components/sections/FAQSection.tsx</title>
<g id="a_node27"><a xlink:href="marketing/components/sections/FAQSection.tsx" xlink:title="FAQSection.tsx">
<path fill="#bbfeff" stroke="black" d="M318.21,-991.88C318.21,-991.88 251.79,-991.88 251.79,-991.88 248.83,-991.88 245.88,-988.92 245.88,-985.96 245.88,-985.96 245.88,-980.04 245.88,-980.04 245.88,-977.08 248.83,-974.12 251.79,-974.12 251.79,-974.12 318.21,-974.12 318.21,-974.12 321.17,-974.12 324.12,-977.08 324.12,-980.04 324.12,-980.04 324.12,-985.96 324.12,-985.96 324.12,-988.92 321.17,-991.88 318.21,-991.88"/>
<text xml:space="preserve" text-anchor="start" x="253.88" y="-979.33" font-family="Helvetica,sans-Serif" font-size="9.00">FAQSection.tsx</text>
</a>
</g>
</g>
<!-- marketing/components/layout/MainApp.tsx&#45;&gt;marketing/components/sections/FAQSection.tsx -->
<g id="edge26" class="edge">
<title>marketing/components/layout/MainApp.tsx&#45;&gt;marketing/components/sections/FAQSection.tsx</title>
<path fill="none" stroke="#000000" stroke-width="2" stroke-opacity="0.200000" d="M136.43,-872.07C145.6,-892.77 171.04,-943.55 209.25,-968 217.44,-973.24 227.1,-976.71 236.69,-978.99"/>
<polygon fill="#000000" fill-opacity="0.200000" stroke="#000000" stroke-width="2" stroke-opacity="0.200000" points="236.18,-981.03 242.48,-980.17 237.02,-976.92 236.18,-981.03"/>
</g>
<!-- marketing/components/sections/HeroBanner.tsx -->
<g id="node28" class="node">
<title>marketing/components/sections/HeroBanner.tsx</title>
<g id="a_node28"><a xlink:href="marketing/components/sections/HeroBanner.tsx" xlink:title="HeroBanner.tsx">
<path fill="#bbfeff" stroke="black" d="M318.96,-871.88C318.96,-871.88 251.04,-871.88 251.04,-871.88 248.08,-871.88 245.12,-868.92 245.12,-865.96 245.12,-865.96 245.12,-860.04 245.12,-860.04 245.12,-857.08 248.08,-854.12 251.04,-854.12 251.04,-854.12 318.96,-854.12 318.96,-854.12 321.92,-854.12 324.88,-857.08 324.88,-860.04 324.88,-860.04 324.88,-865.96 324.88,-865.96 324.88,-868.92 321.92,-871.88 318.96,-871.88"/>
<text xml:space="preserve" text-anchor="start" x="253.12" y="-859.33" font-family="Helvetica,sans-Serif" font-size="9.00">HeroBanner.tsx</text>
</a>
</g>
</g>
<!-- marketing/components/layout/MainApp.tsx&#45;&gt;marketing/components/sections/HeroBanner.tsx -->
<g id="edge27" class="edge">
<title>marketing/components/layout/MainApp.tsx&#45;&gt;marketing/components/sections/HeroBanner.tsx</title>
<path fill="none" stroke="#000000" stroke-width="2" stroke-opacity="0.200000" d="M165.1,-863C185.73,-863 212.8,-863 235.9,-863"/>
<polygon fill="#000000" fill-opacity="0.200000" stroke="#000000" stroke-width="2" stroke-opacity="0.200000" points="235.84,-865.1 241.84,-863 235.84,-860.9 235.84,-865.1"/>
</g>
<!-- marketing/components/sections/TargetAudienceSection.tsx -->
<g id="node29" class="node">
<title>marketing/components/sections/TargetAudienceSection.tsx</title>
<g id="a_node29"><a xlink:href="marketing/components/sections/TargetAudienceSection.tsx" xlink:title="TargetAudienceSection.tsx">
<path fill="#bbfeff" stroke="black" d="M341.46,-931.88C341.46,-931.88 228.54,-931.88 228.54,-931.88 225.58,-931.88 222.62,-928.92 222.62,-925.96 222.62,-925.96 222.62,-920.04 222.62,-920.04 222.62,-917.08 225.58,-914.12 228.54,-914.12 228.54,-914.12 341.46,-914.12 341.46,-914.12 344.42,-914.12 347.38,-917.08 347.38,-920.04 347.38,-920.04 347.38,-925.96 347.38,-925.96 347.38,-928.92 344.42,-931.88 341.46,-931.88"/>
<text xml:space="preserve" text-anchor="start" x="230.62" y="-919.33" font-family="Helvetica,sans-Serif" font-size="9.00">TargetAudienceSection.tsx</text>
</a>
</g>
</g>
<!-- marketing/components/layout/MainApp.tsx&#45;&gt;marketing/components/sections/TargetAudienceSection.tsx -->
<g id="edge28" class="edge">
<title>marketing/components/layout/MainApp.tsx&#45;&gt;marketing/components/sections/TargetAudienceSection.tsx</title>
<path fill="none" stroke="#000000" stroke-width="2" stroke-opacity="0.200000" d="M145.24,-872.2C159.91,-882.46 185.18,-898.82 209.25,-908 212.27,-909.15 215.4,-910.22 218.58,-911.21"/>
<polygon fill="#000000" fill-opacity="0.200000" stroke="#000000" stroke-width="2" stroke-opacity="0.200000" points="217.85,-913.19 224.2,-912.83 219.01,-909.15 217.85,-913.19"/>
</g>
<!-- marketing/components/sections/TestimonialSection.tsx -->
<g id="node30" class="node">
<title>marketing/components/sections/TestimonialSection.tsx</title>
<g id="a_node30"><a xlink:href="marketing/components/sections/TestimonialSection.tsx" xlink:title="TestimonialSection.tsx">
<path fill="#bbfeff" stroke="black" d="M332.46,-841.88C332.46,-841.88 237.54,-841.88 237.54,-841.88 234.58,-841.88 231.62,-838.92 231.62,-835.96 231.62,-835.96 231.62,-830.04 231.62,-830.04 231.62,-827.08 234.58,-824.12 237.54,-824.12 237.54,-824.12 332.46,-824.12 332.46,-824.12 335.42,-824.12 338.38,-827.08 338.38,-830.04 338.38,-830.04 338.38,-835.96 338.38,-835.96 338.38,-838.92 335.42,-841.88 332.46,-841.88"/>
<text xml:space="preserve" text-anchor="start" x="239.62" y="-829.33" font-family="Helvetica,sans-Serif" font-size="9.00">TestimonialSection.tsx</text>
</a>
</g>
</g>
<!-- marketing/components/layout/MainApp.tsx&#45;&gt;marketing/components/sections/TestimonialSection.tsx -->
<g id="edge29" class="edge">
<title>marketing/components/layout/MainApp.tsx&#45;&gt;marketing/components/sections/TestimonialSection.tsx</title>
<path fill="none" stroke="#000000" stroke-width="2" stroke-opacity="0.200000" d="M165.1,-856.56C183.5,-852.92 207.03,-848.26 228.29,-844.04"/>
<polygon fill="#000000" fill-opacity="0.200000" stroke="#000000" stroke-width="2" stroke-opacity="0.200000" points="228.48,-846.14 233.96,-842.92 227.66,-842.02 228.48,-846.14"/>
</g>
<!-- marketing/components/sections/BenefitOverview.tsx&#45;&gt;components/ -->
<g id="edge33" class="edge">
<title>marketing/components/sections/BenefitOverview.tsx&#45;&gt;components/</title>
<path fill="none" stroke="#000000" stroke-width="2" stroke-opacity="0.200000" d="M333.06,-892.53C344.21,-890.25 355.21,-885.9 363.38,-878 374.84,-866.91 367.08,-858.37 371.38,-843 388.22,-782.69 412.95,-712.62 424.55,-680.6"/>
<polygon fill="#000000" fill-opacity="0.200000" stroke="#000000" stroke-width="2" stroke-opacity="0.200000" points="426.47,-681.47 426.54,-675.12 422.52,-680.04 426.47,-681.47"/>
</g>
<!-- marketing/components/sections/BenefitOverview.tsx&#45;&gt;marketing/assets/navaa&#45;lernansatz.png -->
<g id="edge32" class="edge">
<title>marketing/components/sections/BenefitOverview.tsx&#45;&gt;marketing/assets/navaa&#45;lernansatz.png</title>
<path fill="none" stroke="#000000" stroke-width="2" stroke-opacity="0.200000" d="M333.08,-893C344.86,-893 357.66,-893 370,-893"/>
<polygon fill="#000000" fill-opacity="0.200000" stroke="#000000" stroke-width="2" stroke-opacity="0.200000" points="369.87,-895.1 375.87,-893 369.87,-890.9 369.87,-895.1"/>
</g>
<!-- marketing/components/sections/FAQSection.tsx&#45;&gt;components/ -->
<g id="edge34" class="edge">
<title>marketing/components/sections/FAQSection.tsx&#45;&gt;components/</title>
<path fill="none" stroke="#000000" stroke-width="2" stroke-opacity="0.200000" d="M324.29,-984.84C338.6,-983.42 353.7,-978.99 363.38,-968 372.57,-957.55 368.72,-856.66 371.38,-843 383.32,-781.53 410.43,-712.03 423.58,-680.37"/>
<polygon fill="#000000" fill-opacity="0.200000" stroke="#000000" stroke-width="2" stroke-opacity="0.200000" points="425.47,-681.28 425.86,-674.93 421.6,-679.65 425.47,-681.28"/>
</g>
<!-- marketing/components/sections/HeroBanner.tsx&#45;&gt;components/ -->
<g id="edge36" class="edge">
<title>marketing/components/sections/HeroBanner.tsx&#45;&gt;components/</title>
<path fill="none" stroke="#000000" stroke-width="2" stroke-opacity="0.200000" d="M325.18,-863.02C338.6,-861.19 352.86,-856.97 363.38,-848 414.74,-804.22 427.1,-717.99 430.07,-680.78"/>
<polygon fill="#000000" fill-opacity="0.200000" stroke="#000000" stroke-width="2" stroke-opacity="0.200000" points="432.14,-681.19 430.45,-675.07 427.95,-680.91 432.14,-681.19"/>
</g>
<!-- marketing/components/sections/HeroBanner.tsx&#45;&gt;marketing/assets/navaa&#45;learn&#45;loop.png -->
<g id="edge35" class="edge">
<title>marketing/components/sections/HeroBanner.tsx&#45;&gt;marketing/assets/navaa&#45;learn&#45;loop.png</title>
<path fill="none" stroke="#000000" stroke-width="2" stroke-opacity="0.200000" d="M325.24,-863C339.19,-863 355.24,-863 370.55,-863"/>
<polygon fill="#000000" fill-opacity="0.200000" stroke="#000000" stroke-width="2" stroke-opacity="0.200000" points="370.44,-865.1 376.44,-863 370.44,-860.9 370.44,-865.1"/>
</g>
<!-- marketing/components/sections/TargetAudienceSection.tsx&#45;&gt;components/ -->
<g id="edge37" class="edge">
<title>marketing/components/sections/TargetAudienceSection.tsx&#45;&gt;components/</title>
<path fill="none" stroke="#000000" stroke-width="2" stroke-opacity="0.200000" d="M347.73,-918.73C353.6,-916.18 358.99,-912.7 363.38,-908 373.3,-897.36 368.18,-857.2 371.38,-843 385.11,-781.9 411.36,-712.22 423.93,-680.44"/>
<polygon fill="#000000" fill-opacity="0.200000" stroke="#000000" stroke-width="2" stroke-opacity="0.200000" points="425.83,-681.35 426.11,-675 421.93,-679.79 425.83,-681.35"/>
</g>
<!-- marketing/components/sections/TargetAudienceSection.tsx&#45;&gt;contexts/AuthContext.tsx -->
<g id="edge39" class="edge">
<title>marketing/components/sections/TargetAudienceSection.tsx&#45;&gt;contexts/AuthContext.tsx</title>
<path fill="none" stroke="#000000" stroke-width="2" stroke-opacity="0.200000" d="M347.85,-931.78C353.23,-933.5 358.48,-935.55 363.38,-938 441.36,-977.08 427.26,-1038.55 508.62,-1070 571.64,-1094.35 601.39,-1102.49 660.62,-1070 777.72,-1005.77 834.42,-837.73 850.25,-782.72"/>
<polygon fill="#000000" fill-opacity="0.200000" stroke="#000000" stroke-width="2" stroke-opacity="0.200000" points="852.18,-783.6 851.77,-777.26 848.13,-782.47 852.18,-783.6"/>
</g>
<!-- marketing/components/sections/TargetAudienceSection.tsx&#45;&gt;lib/assetPaths.ts -->
<g id="edge38" class="edge">
<title>marketing/components/sections/TargetAudienceSection.tsx&#45;&gt;lib/assetPaths.ts</title>
<path fill="none" stroke="#000000" stroke-width="2" stroke-opacity="0.200000" d="M347.77,-926.74C353.71,-929.37 359.1,-933.01 363.38,-938 378.5,-955.64 354.99,-1130.52 371.38,-1147 415.4,-1191.26 607.11,-1177.05 694.13,-1168.02"/>
<polygon fill="#000000" fill-opacity="0.200000" stroke="#000000" stroke-width="2" stroke-opacity="0.200000" points="694.21,-1170.12 699.96,-1167.4 693.77,-1165.94 694.21,-1170.12"/>
</g>
<!-- marketing/components/sections/TestimonialSection.tsx&#45;&gt;components/ -->
<g id="edge40" class="edge">
<title>marketing/components/sections/TestimonialSection.tsx&#45;&gt;components/</title>
<path fill="none" stroke="#000000" stroke-width="2" stroke-opacity="0.200000" d="M299.05,-823.72C315.3,-811.77 343.34,-789.82 363.38,-767 387.85,-739.12 410.01,-701.67 421.88,-680.15"/>
<polygon fill="#000000" fill-opacity="0.200000" stroke="#000000" stroke-width="2" stroke-opacity="0.200000" points="423.72,-681.17 424.74,-674.89 420.03,-679.16 423.72,-681.17"/>
</g>
<!-- marketing/pages/ImpressumPage.tsx -->
<g id="node31" class="node">
<title>marketing/pages/ImpressumPage.tsx</title>
<g id="a_node31"><a xlink:href="marketing/pages/ImpressumPage.tsx" xlink:title="ImpressumPage.tsx">
<path fill="#bbfeff" stroke="black" d="M173.83,-713.88C173.83,-713.88 89.42,-713.88 89.42,-713.88 86.46,-713.88 83.5,-710.92 83.5,-707.96 83.5,-707.96 83.5,-702.04 83.5,-702.04 83.5,-699.08 86.46,-696.12 89.42,-696.12 89.42,-696.12 173.83,-696.12 173.83,-696.12 176.79,-696.12 179.75,-699.08 179.75,-702.04 179.75,-702.04 179.75,-707.96 179.75,-707.96 179.75,-710.92 176.79,-713.88 173.83,-713.88"/>
<text xml:space="preserve" text-anchor="start" x="91.5" y="-701.33" font-family="Helvetica,sans-Serif" font-size="9.00">ImpressumPage.tsx</text>
</a>
</g>
</g>
<!-- marketing/pages/ImpressumPage.tsx&#45;&gt;src/ -->
<g id="edge41" class="edge">
<title>marketing/pages/ImpressumPage.tsx&#45;&gt;src/</title>
<path fill="none" stroke="#000000" stroke-width="2" stroke-opacity="0.200000" d="M135,-695.76C141.84,-671.19 164.04,-604.06 209.25,-573 269.4,-531.68 298.63,-552.8 371.38,-547 428.64,-542.44 447.88,-524.24 500.62,-547 534.16,-561.47 560.44,-596.89 573.84,-618.12"/>
<polygon fill="#000000" fill-opacity="0.200000" stroke="#000000" stroke-width="2" stroke-opacity="0.200000" points="571.99,-619.13 576.91,-623.16 575.58,-616.94 571.99,-619.13"/>
</g>
<!-- marketing/pages/LernansatzPage.tsx -->
<g id="node32" class="node">
<title>marketing/pages/LernansatzPage.tsx</title>
<g id="a_node32"><a xlink:href="marketing/pages/LernansatzPage.tsx" xlink:title="LernansatzPage.tsx">
<path fill="#bbfeff" stroke="black" d="M174.21,-773.88C174.21,-773.88 89.04,-773.88 89.04,-773.88 86.08,-773.88 83.12,-770.92 83.12,-767.96 83.12,-767.96 83.12,-762.04 83.12,-762.04 83.12,-759.08 86.08,-756.12 89.04,-756.12 89.04,-756.12 174.21,-756.12 174.21,-756.12 177.17,-756.12 180.12,-759.08 180.12,-762.04 180.12,-762.04 180.12,-767.96 180.12,-767.96 180.12,-770.92 177.17,-773.88 174.21,-773.88"/>
<text xml:space="preserve" text-anchor="start" x="91.12" y="-761.33" font-family="Helvetica,sans-Serif" font-size="9.00">LernansatzPage.tsx</text>
</a>
</g>
</g>
<!-- marketing/pages/LernansatzPage.tsx&#45;&gt;src/ -->
<g id="edge42" class="edge">
<title>marketing/pages/LernansatzPage.tsx&#45;&gt;src/</title>
<path fill="none" stroke="#000000" stroke-width="2" stroke-opacity="0.200000" d="M180.47,-762.72C188.39,-760.23 195.79,-756.24 201.25,-750 215.77,-733.38 195.53,-668.29 209.25,-651 256.27,-591.71 296.61,-610.7 371.38,-599 428.13,-590.12 444.38,-587.33 500.62,-599 521.58,-603.35 543.74,-613.27 559.89,-621.59"/>
<polygon fill="#000000" fill-opacity="0.200000" stroke="#000000" stroke-width="2" stroke-opacity="0.200000" points="558.79,-623.39 565.07,-624.34 560.76,-619.68 558.79,-623.39"/>
</g>
<!-- marketing/pages/PricingPage.tsx -->
<g id="node33" class="node">
<title>marketing/pages/PricingPage.tsx</title>
<g id="a_node33"><a xlink:href="marketing/pages/PricingPage.tsx" xlink:title="PricingPage.tsx">
<path fill="#bbfeff" stroke="black" d="M165.58,-743.88C165.58,-743.88 97.67,-743.88 97.67,-743.88 94.71,-743.88 91.75,-740.92 91.75,-737.96 91.75,-737.96 91.75,-732.04 91.75,-732.04 91.75,-729.08 94.71,-726.12 97.67,-726.12 97.67,-726.12 165.58,-726.12 165.58,-726.12 168.54,-726.12 171.5,-729.08 171.5,-732.04 171.5,-732.04 171.5,-737.96 171.5,-737.96 171.5,-740.92 168.54,-743.88 165.58,-743.88"/>
<text xml:space="preserve" text-anchor="start" x="99.75" y="-731.33" font-family="Helvetica,sans-Serif" font-size="9.00">PricingPage.tsx</text>
</a>
</g>
</g>
<!-- marketing/pages/PricingPage.tsx&#45;&gt;components/ -->
<g id="edge43" class="edge">
<title>marketing/pages/PricingPage.tsx&#45;&gt;components/</title>
<path fill="none" stroke="#000000" stroke-width="2" stroke-opacity="0.200000" d="M171.86,-726.62C181.48,-724.51 191.75,-722.22 201.25,-720 267.61,-704.52 344.39,-685.18 390.26,-673.47"/>
<polygon fill="#000000" fill-opacity="0.200000" stroke="#000000" stroke-width="2" stroke-opacity="0.200000" points="390.5,-675.58 395.79,-672.06 389.46,-671.51 390.5,-675.58"/>
</g>
<!-- marketing/pages/PricingPage.tsx&#45;&gt;src/ -->
<g id="edge44" class="edge">
<title>marketing/pages/PricingPage.tsx&#45;&gt;src/</title>
<path fill="none" stroke="#000000" stroke-width="2" stroke-opacity="0.200000" d="M171.66,-734.95C182.77,-732.92 193.85,-728.6 201.25,-720 218.83,-699.58 191.1,-618.92 209.25,-599 231.14,-574.97 469.78,-562.75 500.62,-573 528.16,-582.15 553.94,-604.38 569.26,-619.58"/>
<polygon fill="#000000" fill-opacity="0.200000" stroke="#000000" stroke-width="2" stroke-opacity="0.200000" points="567.71,-621 573.41,-623.83 570.72,-618.07 567.71,-621"/>
</g>
<!-- payments/components/PaymentModal.tsx -->
<g id="node34" class="node">
<title>payments/components/PaymentModal.tsx</title>
<g id="a_node34"><a xlink:href="payments/components/PaymentModal.tsx" xlink:title="PaymentModal.tsx">
<path fill="#bbfeff" stroke="black" d="M324.58,-433.88C324.58,-433.88 245.42,-433.88 245.42,-433.88 242.46,-433.88 239.5,-430.92 239.5,-427.96 239.5,-427.96 239.5,-422.04 239.5,-422.04 239.5,-419.08 242.46,-416.12 245.42,-416.12 245.42,-416.12 324.58,-416.12 324.58,-416.12 327.54,-416.12 330.5,-419.08 330.5,-422.04 330.5,-422.04 330.5,-427.96 330.5,-427.96 330.5,-430.92 327.54,-433.88 324.58,-433.88"/>
<text xml:space="preserve" text-anchor="start" x="247.5" y="-421.32" font-family="Helvetica,sans-Serif" font-size="9.00">PaymentModal.tsx</text>
</a>
</g>
</g>
<!-- marketing/pages/PricingPage.tsx&#45;&gt;payments/components/PaymentModal.tsx -->
<g id="edge45" class="edge">
<title>marketing/pages/PricingPage.tsx&#45;&gt;payments/components/PaymentModal.tsx</title>
<path fill="none" stroke="#000000" stroke-width="2" stroke-dasharray="5,2" stroke-opacity="0.200000" d="M171.86,-735.12C182.98,-733.1 194.01,-728.73 201.25,-720 221.11,-696.04 189.18,-463.79 209.25,-440 214.82,-433.39 222.42,-429.18 230.64,-426.57"/>
<polygon fill="#000000" fill-opacity="0.200000" stroke="#000000" stroke-width="2" stroke-opacity="0.200000" points="231.12,-428.61 236.44,-425.13 230.11,-424.54 231.12,-428.61"/>
</g>
<!-- payments/components/PaymentModal.tsx&#45;&gt;contexts/AuthContext.tsx -->
<g id="edge70" class="edge">
<title>payments/components/PaymentModal.tsx&#45;&gt;contexts/AuthContext.tsx</title>
<path fill="none" stroke="#000000" stroke-width="2" stroke-opacity="0.200000" d="M330.94,-430.2C429.56,-443.95 666.78,-490.14 800.12,-627 833.59,-661.35 847.39,-718.62 852.44,-747.38"/>
<polygon fill="#000000" fill-opacity="0.200000" stroke="#000000" stroke-width="2" stroke-opacity="0.200000" points="850.31,-747.39 853.35,-752.98 854.46,-746.72 850.31,-747.39"/>
</g>
<!-- payments/services/stripe.service.ts -->
<g id="node40" class="node">
<title>payments/services/stripe.service.ts</title>
<g id="a_node40"><a xlink:href="payments/services/stripe.service.ts" xlink:title="stripe.service.ts">
<path fill="#ddfeff" stroke="black" d="M465.58,-343.88C465.58,-343.88 398.42,-343.88 398.42,-343.88 395.46,-343.88 392.5,-340.92 392.5,-337.96 392.5,-337.96 392.5,-332.04 392.5,-332.04 392.5,-329.08 395.46,-326.12 398.42,-326.12 398.42,-326.12 465.58,-326.12 465.58,-326.12 468.54,-326.12 471.5,-329.08 471.5,-332.04 471.5,-332.04 471.5,-337.96 471.5,-337.96 471.5,-340.92 468.54,-343.88 465.58,-343.88"/>
<text xml:space="preserve" text-anchor="start" x="400.5" y="-331.32" font-family="Helvetica,sans-Serif" font-size="9.00">stripe.service.ts</text>
</a>
</g>
</g>
<!-- payments/components/PaymentModal.tsx&#45;&gt;payments/services/stripe.service.ts -->
<g id="edge71" class="edge">
<title>payments/components/PaymentModal.tsx&#45;&gt;payments/services/stripe.service.ts</title>
<path fill="none" stroke="#000000" stroke-width="2" stroke-opacity="0.200000" d="M330.97,-416.38C342.03,-413.16 353.51,-408.81 363.38,-403 386.3,-389.49 406.96,-366.34 419.25,-350.85"/>
<polygon fill="#000000" fill-opacity="0.200000" stroke="#000000" stroke-width="2" stroke-opacity="0.200000" points="420.73,-352.37 422.73,-346.34 417.4,-349.81 420.73,-352.37"/>
</g>
<!-- pages/ -->
<g id="node35" class="node">
<title>pages/</title>
<g id="a_node35"><a xlink:href="pages/" xlink:title="pages">
<polygon fill="#ffffcc" stroke="black" points="54,-626.88 1.97,-626.88 0,-624.9 0,-609.12 52.03,-609.12 54,-611.1 54,-626.88"/>
<polyline fill="none" stroke="black" points="52.03,-624.9 0,-624.9"/>
<polyline fill="none" stroke="black" points="52.03,-624.9 52.03,-609.12"/>
<polyline fill="none" stroke="black" points="52.03,-624.9 54,-626.88"/>
<text xml:space="preserve" text-anchor="start" x="14.25" y="-614.33" font-family="Helvetica,sans-Serif" font-size="9.00">pages</text>
</a>
</g>
</g>
<!-- pages/&#45;&gt;components/ -->
<g id="edge50" class="edge">
<title>pages/&#45;&gt;components/</title>
<path fill="none" stroke="#000000" stroke-width="2" stroke-opacity="0.200000" d="M54.44,-620.95C122.97,-628.6 306.72,-649.12 389.53,-658.37"/>
<polygon fill="#000000" fill-opacity="0.200000" stroke="#000000" stroke-width="2" stroke-opacity="0.200000" points="389.2,-660.45 395.4,-659.02 389.67,-656.27 389.2,-660.45"/>
</g>
<!-- pages/&#45;&gt;types/module&#45;configuration.types.ts -->
<g id="edge57" class="edge">
<title>pages/&#45;&gt;types/module&#45;configuration.types.ts</title>
<path fill="none" stroke="#000000" stroke-width="2" stroke-opacity="0.200000" d="M28.35,-627.24C30.38,-679.87 41.46,-940.41 62,-969 171.12,-1120.88 440.03,-1069.9 542.79,-1043.57"/>
<polygon fill="#000000" fill-opacity="0.200000" stroke="#000000" stroke-width="2" stroke-opacity="0.200000" points="543.14,-1045.65 548.42,-1042.1 542.08,-1041.58 543.14,-1045.65"/>
</g>
<!-- pages/&#45;&gt;contexts/AuthContext.tsx -->
<g id="edge47" class="edge">
<title>pages/&#45;&gt;contexts/AuthContext.tsx</title>
<path fill="none" stroke="#000000" stroke-width="2" stroke-opacity="0.200000" d="M28.19,-627.15C29.44,-684.26 37.28,-990.38 62,-1023 104.2,-1078.68 140.79,-1064.09 209.25,-1078 405.93,-1117.96 468.54,-1149.16 660.62,-1091 731.94,-1069.41 757.62,-1059.2 800.12,-998 847.87,-929.26 854.45,-824.47 855.09,-782.9"/>
<polygon fill="#000000" fill-opacity="0.200000" stroke="#000000" stroke-width="2" stroke-opacity="0.200000" points="857.19,-783 855.13,-776.99 852.99,-782.97 857.19,-783"/>
</g>
<!-- pages/&#45;&gt;supabaseClient.ts -->
<g id="edge56" class="edge">
<title>pages/&#45;&gt;supabaseClient.ts</title>
<path fill="none" stroke="#000000" stroke-width="2" stroke-opacity="0.200000" d="M28.07,-608.78C28.62,-549.83 32.96,-227.33 62,-196 129.9,-122.74 184.11,-161 284,-161 284,-161 284,-161 739.38,-161 867.25,-161 939.7,-646.91 953.28,-747.07"/>
<polygon fill="#000000" fill-opacity="0.200000" stroke="#000000" stroke-width="2" stroke-opacity="0.200000" points="951.2,-747.32 954.07,-752.99 955.36,-746.77 951.2,-747.32"/>
</g>
<!-- pages/&#45;&gt;src/ -->
<g id="edge46" class="edge">
<title>pages/&#45;&gt;src/</title>
<path fill="none" stroke="#000000" stroke-width="2" stroke-opacity="0.200000" d="M28.02,-608.83C28.27,-550.23 31.05,-229.72 62,-201 64.88,-198.32 360.15,-199.08 363.38,-200 432.39,-219.64 458.67,-226.79 500.62,-285 577.97,-392.31 584.15,-561.65 583.97,-616.91"/>
<polygon fill="#000000" fill-opacity="0.200000" stroke="#000000" stroke-width="2" stroke-opacity="0.200000" points="581.87,-616.81 583.91,-622.83 586.07,-616.86 581.87,-616.81"/>
</g>
<!-- pages/&#45;&gt;types/foundation.types.ts -->
<g id="edge61" class="edge">
<title>pages/&#45;&gt;types/foundation.types.ts</title>
<path fill="none" stroke="#000000" stroke-width="2" stroke-opacity="0.200000" d="M28.19,-627.3C29.23,-670.58 35.15,-852.23 62,-901 102.72,-974.96 129.71,-992.7 209.25,-1021 266.6,-1041.41 440.05,-1021.84 529.3,-1009.83"/>
<polygon fill="#000000" fill-opacity="0.200000" stroke="#000000" stroke-width="2" stroke-opacity="0.200000" points="529.52,-1011.92 535.19,-1009.03 528.96,-1007.76 529.52,-1011.92"/>
</g>
<!-- pages/&#45;&gt;config/case&#45;generation&#45;prompts.ts -->
<g id="edge54" class="edge">
<title>pages/&#45;&gt;config/case&#45;generation&#45;prompts.ts</title>
<path fill="none" stroke="#000000" stroke-width="2" stroke-opacity="0.200000" d="M28.01,-608.64C28.2,-545.77 30.62,-186.6 62,-151 103.74,-103.65 140.02,-138.37 201.25,-123 216.32,-119.22 232.73,-114.41 246.94,-110.02"/>
<polygon fill="#000000" fill-opacity="0.200000" stroke="#000000" stroke-width="2" stroke-opacity="0.200000" points="247.47,-112.05 252.57,-108.25 246.22,-108.04 247.47,-112.05"/>
</g>
<!-- pages/&#45;&gt;lib/guards/UnifiedGuard.tsx -->
<g id="edge48" class="edge">
<title>pages/&#45;&gt;lib/guards/UnifiedGuard.tsx</title>
<path fill="none" stroke="#000000" stroke-width="2" stroke-opacity="0.200000" d="M28.17,-627.17C29.6,-701.45 40.07,-1202.71 62,-1225 96.69,-1260.25 234.54,-1241 284,-1241 284,-1241 284,-1241 433,-1241 524.6,-1241 630.13,-1221.24 689.78,-1208.2"/>
<polygon fill="#000000" fill-opacity="0.200000" stroke="#000000" stroke-width="2" stroke-opacity="0.200000" points="689.88,-1210.33 695.28,-1206.99 688.97,-1206.23 689.88,-1210.33"/>
</g>
<!-- pages/&#45;&gt;lib/logger.ts -->
<g id="edge58" class="edge">
<title>pages/&#45;&gt;lib/logger.ts</title>
<path fill="none" stroke="#000000" stroke-width="2" stroke-opacity="0.200000" d="M28.09,-627.22C28.78,-687.58 33.86,-1025.1 62,-1060 104.87,-1113.17 142.57,-1089.18 209.25,-1104 466.32,-1161.13 540.01,-1106.9 800.12,-1148 806.63,-1149.03 813.47,-1150.54 820.03,-1152.21"/>
<polygon fill="#000000" fill-opacity="0.200000" stroke="#000000" stroke-width="2" stroke-opacity="0.200000" points="819.48,-1154.24 825.82,-1153.77 820.57,-1150.18 819.48,-1154.24"/>
</g>
<!-- pages/&#45;&gt;lib/middleware/auth.ts -->
<g id="edge51" class="edge">
<title>pages/&#45;&gt;lib/middleware/auth.ts</title>
<path fill="none" stroke="#000000" stroke-width="2" stroke-opacity="0.200000" d="M28.11,-627.14C29.15,-708.23 37.61,-1302.32 62,-1330 128.23,-1405.16 183.82,-1369 284,-1369 284,-1369 284,-1369 433,-1369 530.37,-1369 645.24,-1371.07 701.99,-1372.23"/>
<polygon fill="#000000" fill-opacity="0.200000" stroke="#000000" stroke-width="2" stroke-opacity="0.200000" points="701.84,-1374.33 707.89,-1372.36 701.93,-1370.13 701.84,-1374.33"/>
</g>
<!-- pages/&#45;&gt;lib/rateLimiter.ts -->
<g id="edge52" class="edge">
<title>pages/&#45;&gt;lib/rateLimiter.ts</title>
<path fill="none" stroke="#000000" stroke-width="2" stroke-opacity="0.200000" d="M28.13,-627.23C29.28,-706.61 38.26,-1272.06 62,-1298 129.25,-1371.5 184.38,-1329 284,-1329 284,-1329 284,-1329 433,-1329 526.6,-1329 636.3,-1333.78 695.07,-1336.73"/>
<polygon fill="#000000" fill-opacity="0.200000" stroke="#000000" stroke-width="2" stroke-opacity="0.200000" points="694.94,-1338.83 701.03,-1337.04 695.15,-1334.63 694.94,-1338.83"/>
</g>
<!-- pages/&#45;&gt;lib/schemas/admin.schemas.ts -->
<g id="edge53" class="edge">
<title>pages/&#45;&gt;lib/schemas/admin.schemas.ts</title>
<path fill="none" stroke="#000000" stroke-width="2" stroke-opacity="0.200000" d="M28.15,-627.31C29.41,-705.02 39,-1243.58 62,-1268 130.08,-1340.28 184.71,-1293 284,-1293 284,-1293 284,-1293 433,-1293 521.1,-1293 623.52,-1290.46 684.26,-1288.68"/>
<polygon fill="#000000" fill-opacity="0.200000" stroke="#000000" stroke-width="2" stroke-opacity="0.200000" points="684.31,-1290.78 690.25,-1288.5 684.19,-1286.58 684.31,-1290.78"/>
</g>
<!-- pages/&#45;&gt;lib/schemas/foundation.schemas.ts -->
<g id="edge62" class="edge">
<title>pages/&#45;&gt;lib/schemas/foundation.schemas.ts</title>
<path fill="none" stroke="#000000" stroke-width="2" stroke-opacity="0.200000" d="M28.16,-627C29.49,-702.11 39.54,-1222.62 62,-1246 96.33,-1281.74 234.45,-1267 284,-1267 284,-1267 284,-1267 433,-1267 517.03,-1267 614.04,-1263.15 675.52,-1260.22"/>
<polygon fill="#000000" fill-opacity="0.200000" stroke="#000000" stroke-width="2" stroke-opacity="0.200000" points="675.42,-1262.33 681.31,-1259.94 675.21,-1258.14 675.42,-1262.33"/>
</g>
<!-- pages/&#45;&gt;marketing/pages/ImpressumPage.tsx -->
<g id="edge66" class="edge">
<title>pages/&#45;&gt;marketing/pages/ImpressumPage.tsx</title>
<path fill="none" stroke="#000000" stroke-width="2" stroke-opacity="0.200000" d="M38.98,-627.31C56.73,-642.35 91.86,-672.14 113.1,-690.14"/>
<polygon fill="#000000" fill-opacity="0.200000" stroke="#000000" stroke-width="2" stroke-opacity="0.200000" points="111.48,-691.52 117.41,-693.8 114.19,-688.32 111.48,-691.52"/>
</g>
<!-- pages/&#45;&gt;marketing/pages/LernansatzPage.tsx -->
<g id="edge67" class="edge">
<title>pages/&#45;&gt;marketing/pages/LernansatzPage.tsx</title>
<path fill="none" stroke="#000000" stroke-width="2" stroke-opacity="0.200000" d="M27.37,-627.27C26.27,-651.31 26.9,-716.17 62,-750 65.71,-753.58 70.07,-756.38 74.76,-758.57"/>
<polygon fill="#000000" fill-opacity="0.200000" stroke="#000000" stroke-width="2" stroke-opacity="0.200000" points="73.73,-760.43 80.08,-760.62 75.24,-756.51 73.73,-760.43"/>
</g>
<!-- pages/&#45;&gt;marketing/pages/PricingPage.tsx -->
<g id="edge69" class="edge">
<title>pages/&#45;&gt;marketing/pages/PricingPage.tsx</title>
<path fill="none" stroke="#000000" stroke-width="2" stroke-opacity="0.200000" d="M28.2,-627.23C29.15,-647.31 34.37,-695.17 62,-720 67.93,-725.33 75.3,-728.91 83,-731.3"/>
<polygon fill="#000000" fill-opacity="0.200000" stroke="#000000" stroke-width="2" stroke-opacity="0.200000" points="82.16,-733.25 88.49,-732.69 83.19,-729.18 82.16,-733.25"/>
</g>
<!-- styles/globals.css -->
<g id="node36" class="node">
<title>styles/globals.css</title>
<g id="a_node36"><a xlink:href="styles/globals.css" xlink:title="globals.css">
<path fill="#ffffcc" stroke="black" d="M156.58,-33.88C156.58,-33.88 106.67,-33.88 106.67,-33.88 103.71,-33.88 100.75,-30.92 100.75,-27.96 100.75,-27.96 100.75,-22.04 100.75,-22.04 100.75,-19.08 103.71,-16.12 106.67,-16.12 106.67,-16.12 156.58,-16.12 156.58,-16.12 159.54,-16.12 162.5,-19.08 162.5,-22.04 162.5,-22.04 162.5,-27.96 162.5,-27.96 162.5,-30.92 159.54,-33.88 156.58,-33.88"/>
<text xml:space="preserve" text-anchor="start" x="108.75" y="-21.32" font-family="Helvetica,sans-Serif" font-size="9.00">globals.css</text>
</a>
</g>
</g>
<!-- pages/&#45;&gt;styles/globals.css -->
<g id="edge49" class="edge">
<title>pages/&#45;&gt;styles/globals.css</title>
<path fill="none" stroke="#000000" stroke-width="2" stroke-opacity="0.200000" d="M28.05,-608.86C28.47,-540.7 32.29,-113.21 62,-65 69.36,-53.06 81.7,-44.29 93.91,-38.06"/>
<polygon fill="#000000" fill-opacity="0.200000" stroke="#000000" stroke-width="2" stroke-opacity="0.200000" points="94.58,-40.07 99.12,-35.61 92.8,-36.26 94.58,-40.07"/>
</g>
<!-- services/CaseGenerationService.ts -->
<g id="node37" class="node">
<title>services/CaseGenerationService.ts</title>
<g id="a_node37"><a xlink:href="services/CaseGenerationService.ts" xlink:title="CaseGenerationService.ts">
<path fill="#ddfeff" stroke="black" d="M187.33,-93.88C187.33,-93.88 75.92,-93.88 75.92,-93.88 72.96,-93.88 70,-90.92 70,-87.96 70,-87.96 70,-82.04 70,-82.04 70,-79.08 72.96,-76.12 75.92,-76.12 75.92,-76.12 187.33,-76.12 187.33,-76.12 190.29,-76.12 193.25,-79.08 193.25,-82.04 193.25,-82.04 193.25,-87.96 193.25,-87.96 193.25,-90.92 190.29,-93.88 187.33,-93.88"/>
<text xml:space="preserve" text-anchor="start" x="78" y="-81.33" font-family="Helvetica,sans-Serif" font-size="9.00">CaseGenerationService.ts</text>
</a>
</g>
</g>
<!-- pages/&#45;&gt;services/CaseGenerationService.ts -->
<g id="edge55" class="edge">
<title>pages/&#45;&gt;services/CaseGenerationService.ts</title>
<path fill="none" stroke="#000000" stroke-width="2" stroke-opacity="0.200000" d="M28.12,-608.65C29.04,-544.23 35.51,-167.63 62,-125 69.4,-113.09 81.76,-104.32 93.96,-98.09"/>
<polygon fill="#000000" fill-opacity="0.200000" stroke="#000000" stroke-width="2" stroke-opacity="0.200000" points="94.63,-100.1 99.16,-95.64 92.84,-96.3 94.63,-100.1"/>
</g>
<!-- payments/services/freePlan.ts -->
<g id="node38" class="node">
<title>payments/services/freePlan.ts</title>
<g id="a_node38"><a xlink:href="payments/services/freePlan.ts" xlink:title="freePlan.ts">
<path fill="#ddfeff" stroke="black" d="M308.83,-373.88C308.83,-373.88 261.17,-373.88 261.17,-373.88 258.21,-373.88 255.25,-370.92 255.25,-367.96 255.25,-367.96 255.25,-362.04 255.25,-362.04 255.25,-359.08 258.21,-356.12 261.17,-356.12 261.17,-356.12 308.83,-356.12 308.83,-356.12 311.79,-356.12 314.75,-359.08 314.75,-362.04 314.75,-362.04 314.75,-367.96 314.75,-367.96 314.75,-370.92 311.79,-373.88 308.83,-373.88"/>
<text xml:space="preserve" text-anchor="start" x="263.25" y="-361.32" font-family="Helvetica,sans-Serif" font-size="9.00">freePlan.ts</text>
</a>
</g>
</g>
<!-- pages/&#45;&gt;payments/services/freePlan.ts -->
<g id="edge59" class="edge">
<title>pages/&#45;&gt;payments/services/freePlan.ts</title>
<path fill="none" stroke="#000000" stroke-width="2" stroke-opacity="0.200000" d="M29,-608.95C32.29,-580.72 43.62,-495.02 62,-475 106.07,-426.98 155.1,-475.03 201.25,-429 209.21,-421.06 202,-413.6 209.25,-405 219.23,-393.17 233.63,-384.3 247.12,-377.97"/>
<polygon fill="#000000" fill-opacity="0.200000" stroke="#000000" stroke-width="2" stroke-opacity="0.200000" points="247.95,-379.9 252.6,-375.57 246.26,-376.06 247.95,-379.9"/>
</g>
<!-- payments/services/checkout.ts -->
<g id="node39" class="node">
<title>payments/services/checkout.ts</title>
<g id="a_node39"><a xlink:href="payments/services/checkout.ts" xlink:title="checkout.ts">
<path fill="#ddfeff" stroke="black" d="M309.96,-343.88C309.96,-343.88 260.04,-343.88 260.04,-343.88 257.08,-343.88 254.12,-340.92 254.12,-337.96 254.12,-337.96 254.12,-332.04 254.12,-332.04 254.12,-329.08 257.08,-326.12 260.04,-326.12 260.04,-326.12 309.96,-326.12 309.96,-326.12 312.92,-326.12 315.88,-329.08 315.88,-332.04 315.88,-332.04 315.88,-337.96 315.88,-337.96 315.88,-340.92 312.92,-343.88 309.96,-343.88"/>
<text xml:space="preserve" text-anchor="start" x="262.12" y="-331.32" font-family="Helvetica,sans-Serif" font-size="9.00">checkout.ts</text>
</a>
</g>
</g>
<!-- pages/&#45;&gt;payments/services/checkout.ts -->
<g id="edge60" class="edge">
<title>pages/&#45;&gt;payments/services/checkout.ts</title>
<path fill="none" stroke="#000000" stroke-width="2" stroke-opacity="0.200000" d="M28.57,-608.7C30.82,-574.85 40.02,-458.7 62,-430 103.64,-375.63 151,-410.54 201.25,-364 206.51,-359.13 203.44,-354.19 209.25,-350 219.53,-342.59 232.58,-338.62 244.89,-336.56"/>
<polygon fill="#000000" fill-opacity="0.200000" stroke="#000000" stroke-width="2" stroke-opacity="0.200000" points="245,-338.66 250.67,-335.78 244.44,-334.5 245,-338.66"/>
</g>
<!-- pages/&#45;&gt;payments/services/stripe.service.ts -->
<g id="edge63" class="edge">
<title>pages/&#45;&gt;payments/services/stripe.service.ts</title>
<path fill="none" stroke="#000000" stroke-width="2" stroke-opacity="0.200000" d="M28.15,-608.72C29.15,-553.44 35.57,-269.09 62,-242 108.84,-193.98 304.83,-192.27 363.38,-225 398.75,-244.78 417.89,-291.49 426.08,-317.22"/>
<polygon fill="#000000" fill-opacity="0.200000" stroke="#000000" stroke-width="2" stroke-opacity="0.200000" points="424.01,-317.62 427.74,-322.76 428.03,-316.41 424.01,-317.62"/>
</g>
<!-- payments/webhooks/stripe.webhook.ts -->
<g id="node41" class="node">
<title>payments/webhooks/stripe.webhook.ts</title>
<g id="a_node41"><a xlink:href="payments/webhooks/stripe.webhook.ts" xlink:title="stripe.webhook.ts">
<path fill="#ddfeff" stroke="black" d="M322.71,-253.88C322.71,-253.88 247.29,-253.88 247.29,-253.88 244.33,-253.88 241.38,-250.92 241.38,-247.96 241.38,-247.96 241.38,-242.04 241.38,-242.04 241.38,-239.08 244.33,-236.12 247.29,-236.12 247.29,-236.12 322.71,-236.12 322.71,-236.12 325.67,-236.12 328.62,-239.08 328.62,-242.04 328.62,-242.04 328.62,-247.96 328.62,-247.96 328.62,-250.92 325.67,-253.88 322.71,-253.88"/>
<text xml:space="preserve" text-anchor="start" x="249.38" y="-241.32" font-family="Helvetica,sans-Serif" font-size="9.00">stripe.webhook.ts</text>
</a>
</g>
</g>
<!-- pages/&#45;&gt;payments/webhooks/stripe.webhook.ts -->
<g id="edge64" class="edge">
<title>pages/&#45;&gt;payments/webhooks/stripe.webhook.ts</title>
<path fill="none" stroke="#000000" stroke-width="2" stroke-opacity="0.200000" d="M28.38,-608.7C30.5,-559.07 41.49,-326.8 62,-303 103.83,-254.47 180.73,-244.02 232.12,-242.97"/>
<polygon fill="#000000" fill-opacity="0.200000" stroke="#000000" stroke-width="2" stroke-opacity="0.200000" points="232.09,-245.07 238.06,-242.9 232.04,-240.87 232.09,-245.07"/>
</g>
<!-- payments/services/userTariff.ts -->
<g id="node42" class="node">
<title>payments/services/userTariff.ts</title>
<g id="a_node42"><a xlink:href="payments/services/userTariff.ts" xlink:title="userTariff.ts">
<path fill="#ddfeff" stroke="black" d="M310.33,-313.88C310.33,-313.88 259.67,-313.88 259.67,-313.88 256.71,-313.88 253.75,-310.92 253.75,-307.96 253.75,-307.96 253.75,-302.04 253.75,-302.04 253.75,-299.08 256.71,-296.12 259.67,-296.12 259.67,-296.12 310.33,-296.12 310.33,-296.12 313.29,-296.12 316.25,-299.08 316.25,-302.04 316.25,-302.04 316.25,-307.96 316.25,-307.96 316.25,-310.92 313.29,-313.88 310.33,-313.88"/>
<text xml:space="preserve" text-anchor="start" x="261.75" y="-301.32" font-family="Helvetica,sans-Serif" font-size="9.00">userTariff.ts</text>
</a>
</g>
</g>
<!-- pages/&#45;&gt;payments/services/userTariff.ts -->
<g id="edge65" class="edge">
<title>pages/&#45;&gt;payments/services/userTariff.ts</title>
<path fill="none" stroke="#000000" stroke-width="2" stroke-opacity="0.200000" d="M27.96,-608.63C27.95,-567.43 29.95,-402.75 62,-365 107.09,-311.88 193.88,-303.3 244.55,-303.22"/>
<polygon fill="#000000" fill-opacity="0.200000" stroke="#000000" stroke-width="2" stroke-opacity="0.200000" points="244.23,-305.32 250.25,-303.27 244.26,-301.12 244.23,-305.32"/>
</g>
<!-- payments/components/PaymentSuccessView.tsx -->
<g id="node43" class="node">
<title>payments/components/PaymentSuccessView.tsx</title>
<g id="a_node43"><a xlink:href="payments/components/PaymentSuccessView.tsx" xlink:title="PaymentSuccessView.tsx">
<path fill="#bbfeff" stroke="black" d="M338.83,-463.88C338.83,-463.88 231.17,-463.88 231.17,-463.88 228.21,-463.88 225.25,-460.92 225.25,-457.96 225.25,-457.96 225.25,-452.04 225.25,-452.04 225.25,-449.08 228.21,-446.12 231.17,-446.12 231.17,-446.12 338.83,-446.12 338.83,-446.12 341.79,-446.12 344.75,-449.08 344.75,-452.04 344.75,-452.04 344.75,-457.96 344.75,-457.96 344.75,-460.92 341.79,-463.88 338.83,-463.88"/>
<text xml:space="preserve" text-anchor="start" x="233.25" y="-451.32" font-family="Helvetica,sans-Serif" font-size="9.00">PaymentSuccessView.tsx</text>
</a>
</g>
</g>
<!-- pages/&#45;&gt;payments/components/PaymentSuccessView.tsx -->
<g id="edge68" class="edge">
<title>pages/&#45;&gt;payments/components/PaymentSuccessView.tsx</title>
<path fill="none" stroke="#000000" stroke-width="2" stroke-opacity="0.200000" d="M28.53,-608.78C30.14,-589.62 36.55,-545.25 62,-521 74.87,-508.74 175.85,-481.93 237.1,-466.52"/>
<polygon fill="#000000" fill-opacity="0.200000" stroke="#000000" stroke-width="2" stroke-opacity="0.200000" points="237.59,-468.56 242.9,-465.07 236.57,-464.49 237.59,-468.56"/>
</g>
<!-- services/CaseGenerationService.ts&#45;&gt;config/case&#45;generation&#45;prompts.ts -->
<g id="edge74" class="edge">
<title>services/CaseGenerationService.ts&#45;&gt;config/case&#45;generation&#45;prompts.ts</title>
<path fill="none" stroke="#000000" stroke-width="2" stroke-opacity="0.200000" d="M193.32,-90.21C199.54,-90.75 205.9,-91.29 212.23,-91.84"/>
<polygon fill="#000000" fill-opacity="0.200000" stroke="#000000" stroke-width="2" stroke-opacity="0.200000" points="211.64,-93.89 217.8,-92.31 212,-89.71 211.64,-93.89"/>
</g>
<!-- payments/services/checkout.ts&#45;&gt;payments/services/stripe.service.ts -->
<g id="edge73" class="edge">
<title>payments/services/checkout.ts&#45;&gt;payments/services/stripe.service.ts</title>
<path fill="none" stroke="#000000" stroke-width="2" stroke-opacity="0.200000" d="M316.04,-335C335.44,-335 361.09,-335 383.24,-335"/>
<polygon fill="#000000" fill-opacity="0.200000" stroke="#000000" stroke-width="2" stroke-opacity="0.200000" points="383.14,-337.1 389.14,-335 383.14,-332.9 383.14,-337.1"/>
</g>
<!-- payments/components/PaymentSuccessView.tsx&#45;&gt;components/ -->
<g id="edge72" class="edge">
<title>payments/components/PaymentSuccessView.tsx&#45;&gt;components/</title>
<path fill="none" stroke="#000000" stroke-width="2" stroke-opacity="0.200000" d="M300.14,-464.28C316.98,-475.9 345.1,-497.19 363.38,-521 393.99,-560.9 415.56,-616.89 425.25,-645.16"/>
<polygon fill="#000000" fill-opacity="0.200000" stroke="#000000" stroke-width="2" stroke-opacity="0.200000" points="423.22,-645.73 427.12,-650.75 427.21,-644.4 423.22,-645.73"/>
</g>
</g>
</svg>
